<?xml version="1.0" encoding="UTF-8" standalone="no"?>
<!DOCTYPE svg PUBLIC "-//W3C//DTD SVG 1.1//EN"
 "http://www.w3.org/Graphics/SVG/1.1/DTD/svg11.dtd">
<!-- Generated by graphviz version 2.43.0 (0)
 -->
<!-- Title: %3 Pages: 1 -->
<svg width="1699pt" height="2632pt"
 viewBox="0.00 0.00 1699.18 2631.72" xmlns="http://www.w3.org/2000/svg" xmlns:xlink="http://www.w3.org/1999/xlink">
<g id="graph0" class="graph" transform="scale(1 1) rotate(0) translate(4 2627.72)">
<title>%3</title>
<polygon fill="white" stroke="transparent" points="-4,4 -4,-2627.72 1695.18,-2627.72 1695.18,4 -4,4"/>
<g id="clust1" class="cluster">
<title>cluster_reference_preprocess</title>
<path fill="none" stroke="black" d="M848.18,-2334.72C848.18,-2334.72 1278.18,-2334.72 1278.18,-2334.72 1284.18,-2334.72 1290.18,-2340.72 1290.18,-2346.72 1290.18,-2346.72 1290.18,-2603.72 1290.18,-2603.72 1290.18,-2609.72 1284.18,-2615.72 1278.18,-2615.72 1278.18,-2615.72 848.18,-2615.72 848.18,-2615.72 842.18,-2615.72 836.18,-2609.72 836.18,-2603.72 836.18,-2603.72 836.18,-2346.72 836.18,-2346.72 836.18,-2340.72 842.18,-2334.72 848.18,-2334.72"/>
<text text-anchor="middle" x="1063.18" y="-2600.52" font-family="Courier,monospace" font-size="14.00">Preprocess Reference Genome</text>
</g>
<g id="clust2" class="cluster">
<title>cluster_clipadapt</title>
<path fill="none" stroke="black" d="M531.18,-2451.72C531.18,-2451.72 727.18,-2451.72 727.18,-2451.72 733.18,-2451.72 739.18,-2457.72 739.18,-2463.72 739.18,-2463.72 739.18,-2525.72 739.18,-2525.72 739.18,-2531.72 733.18,-2537.72 727.18,-2537.72 727.18,-2537.72 531.18,-2537.72 531.18,-2537.72 525.18,-2537.72 519.18,-2531.72 519.18,-2525.72 519.18,-2525.72 519.18,-2463.72 519.18,-2463.72 519.18,-2457.72 525.18,-2451.72 531.18,-2451.72"/>
<text text-anchor="middle" x="629.18" y="-2522.52" font-family="Courier,monospace" font-size="14.00">Adapter Trimming</text>
</g>
<g id="clust3" class="cluster">
<title>cluster_bwa</title>
<path fill="none" stroke="black" d="M518.18,-2080.55C518.18,-2080.55 816.18,-2080.55 816.18,-2080.55 822.18,-2080.55 828.18,-2086.55 828.18,-2092.55 828.18,-2092.55 828.18,-2431.72 828.18,-2431.72 828.18,-2437.72 822.18,-2443.72 816.18,-2443.72 816.18,-2443.72 518.18,-2443.72 518.18,-2443.72 512.18,-2443.72 506.18,-2437.72 506.18,-2431.72 506.18,-2431.72 506.18,-2092.55 506.18,-2092.55 506.18,-2086.55 512.18,-2080.55 518.18,-2080.55"/>
<text text-anchor="middle" x="667.18" y="-2428.52" font-family="Courier,monospace" font-size="14.00">Align</text>
</g>
<g id="clust4" class="cluster">
<title>cluster_bwa_aln</title>
<path fill="none" stroke="black" stroke-dasharray="5,2" d="M644.18,-2184.72C644.18,-2184.72 808.18,-2184.72 808.18,-2184.72 814.18,-2184.72 820.18,-2190.72 820.18,-2196.72 820.18,-2196.72 820.18,-2400.72 820.18,-2400.72 820.18,-2406.72 814.18,-2412.72 808.18,-2412.72 808.18,-2412.72 644.18,-2412.72 644.18,-2412.72 638.18,-2412.72 632.18,-2406.72 632.18,-2400.72 632.18,-2400.72 632.18,-2196.72 632.18,-2196.72 632.18,-2190.72 638.18,-2184.72 644.18,-2184.72"/>
<text text-anchor="middle" x="726.18" y="-2397.52" font-family="Courier,monospace" font-size="14.00"> bwa mem</text>
</g>
<g id="clust5" class="cluster">
<title>cluster_bwa_mem</title>
<path fill="none" stroke="black" stroke-dasharray="5,2" d="M526.18,-2184.72C526.18,-2184.72 612.18,-2184.72 612.18,-2184.72 618.18,-2184.72 624.18,-2190.72 624.18,-2196.72 624.18,-2196.72 624.18,-2400.72 624.18,-2400.72 624.18,-2406.72 618.18,-2412.72 612.18,-2412.72 612.18,-2412.72 526.18,-2412.72 526.18,-2412.72 520.18,-2412.72 514.18,-2406.72 514.18,-2400.72 514.18,-2400.72 514.18,-2196.72 514.18,-2196.72 514.18,-2190.72 520.18,-2184.72 526.18,-2184.72"/>
<text text-anchor="middle" x="569.18" y="-2397.52" font-family="Courier,monospace" font-size="14.00">bwa aln</text>
</g>
<g id="clust6" class="cluster">
<title>cluster_preprocess</title>
<path fill="none" stroke="black" d="M495.18,-1274.02C495.18,-1274.02 855.18,-1274.02 855.18,-1274.02 861.18,-1274.02 867.18,-1280.02 867.18,-1286.02 867.18,-1286.02 867.18,-2060.55 867.18,-2060.55 867.18,-2066.55 861.18,-2072.55 855.18,-2072.55 855.18,-2072.55 495.18,-2072.55 495.18,-2072.55 489.18,-2072.55 483.18,-2066.55 483.18,-2060.55 483.18,-2060.55 483.18,-1286.02 483.18,-1286.02 483.18,-1280.02 489.18,-1274.02 495.18,-1274.02"/>
<text text-anchor="middle" x="675.18" y="-2057.35" font-family="Courier,monospace" font-size="14.00">BAM files preprocessing</text>
</g>
<g id="clust7" class="cluster">
<title>cluster_rmdup</title>
<path fill="none" stroke="black" d="M503.18,-1662.37C503.18,-1662.37 847.18,-1662.37 847.18,-1662.37 853.18,-1662.37 859.18,-1668.37 859.18,-1674.37 859.18,-1674.37 859.18,-1832.55 859.18,-1832.55 859.18,-1838.55 853.18,-1844.55 847.18,-1844.55 847.18,-1844.55 503.18,-1844.55 503.18,-1844.55 497.18,-1844.55 491.18,-1838.55 491.18,-1832.55 491.18,-1832.55 491.18,-1674.37 491.18,-1674.37 491.18,-1668.37 497.18,-1662.37 503.18,-1662.37"/>
<text text-anchor="middle" x="675.18" y="-1829.35" font-family="Courier,monospace" font-size="14.00">Duplicate removal</text>
</g>
<g id="clust8" class="cluster">
<title>cluster_rescale</title>
<path fill="none" stroke="black" stroke-dasharray="5,2" d="M579.18,-1472.2C579.18,-1472.2 799.18,-1472.2 799.18,-1472.2 805.18,-1472.2 811.18,-1478.2 811.18,-1484.2 811.18,-1484.2 811.18,-1642.37 811.18,-1642.37 811.18,-1648.37 805.18,-1654.37 799.18,-1654.37 799.18,-1654.37 579.18,-1654.37 579.18,-1654.37 573.18,-1654.37 567.18,-1648.37 567.18,-1642.37 567.18,-1642.37 567.18,-1484.2 567.18,-1484.2 567.18,-1478.2 573.18,-1472.2 579.18,-1472.2"/>
<text text-anchor="middle" x="689.18" y="-1639.17" font-family="Courier,monospace" font-size="14.00">PMD rescaling</text>
</g>
<g id="clust9" class="cluster">
<title>cluster_pmdmask</title>
<path fill="none" stroke="black" stroke-dasharray="5,2" d="M503.18,-1282.02C503.18,-1282.02 729.18,-1282.02 729.18,-1282.02 735.18,-1282.02 741.18,-1288.02 741.18,-1294.02 741.18,-1294.02 741.18,-1452.2 741.18,-1452.2 741.18,-1458.2 735.18,-1464.2 729.18,-1464.2 729.18,-1464.2 503.18,-1464.2 503.18,-1464.2 497.18,-1464.2 491.18,-1458.2 491.18,-1452.2 491.18,-1452.2 491.18,-1294.02 491.18,-1294.02 491.18,-1288.02 497.18,-1282.02 503.18,-1282.02"/>
<text text-anchor="middle" x="616.18" y="-1449" font-family="Courier,monospace" font-size="14.00">PMD Masking</text>
</g>
<g id="clust10" class="cluster">
<title>cluster_statistics</title>
<path fill="none" stroke="black" d="M1006.18,-916.35C1006.18,-916.35 1671.18,-916.35 1671.18,-916.35 1677.18,-916.35 1683.18,-922.35 1683.18,-928.35 1683.18,-928.35 1683.18,-1223.02 1683.18,-1223.02 1683.18,-1229.02 1677.18,-1235.02 1671.18,-1235.02 1671.18,-1235.02 1006.18,-1235.02 1006.18,-1235.02 1000.18,-1235.02 994.18,-1229.02 994.18,-1223.02 994.18,-1223.02 994.18,-928.35 994.18,-928.35 994.18,-922.35 1000.18,-916.35 1006.18,-916.35"/>
<text text-anchor="middle" x="1338.68" y="-1219.82" font-family="Courier,monospace" font-size="14.00">QC / Statistics</text>
</g>
<g id="clust11" class="cluster">
<title>cluster_variant_calling</title>
<path fill="none" stroke="black" d="M566.18,-814.35C566.18,-814.35 824.18,-814.35 824.18,-814.35 830.18,-814.35 836.18,-820.35 836.18,-826.35 836.18,-826.35 836.18,-1254.02 836.18,-1254.02 836.18,-1260.02 830.18,-1266.02 824.18,-1266.02 824.18,-1266.02 566.18,-1266.02 566.18,-1266.02 560.18,-1266.02 554.18,-1260.02 554.18,-1254.02 554.18,-1254.02 554.18,-826.35 554.18,-826.35 554.18,-820.35 560.18,-814.35 566.18,-814.35"/>
<text text-anchor="middle" x="695.18" y="-1250.82" font-family="Courier,monospace" font-size="14.00">Variant Calling</text>
</g>
<g id="clust12" class="cluster">
<title>cluster_pileup</title>
<path fill="none" stroke="black" d="M602.18,-1052.85C602.18,-1052.85 816.18,-1052.85 816.18,-1052.85 822.18,-1052.85 828.18,-1058.85 828.18,-1064.85 828.18,-1064.85 828.18,-1223.02 828.18,-1223.02 828.18,-1229.02 822.18,-1235.02 816.18,-1235.02 816.18,-1235.02 602.18,-1235.02 602.18,-1235.02 596.18,-1235.02 590.18,-1229.02 590.18,-1223.02 590.18,-1223.02 590.18,-1064.85 590.18,-1064.85 590.18,-1058.85 596.18,-1052.85 602.18,-1052.85"/>
<text text-anchor="middle" x="709.18" y="-1219.82" font-family="Courier,monospace" font-size="14.00">Pileup</text>
</g>
<g id="clust13" class="cluster">
<title>cluster_rhps</title>
<path fill="none" stroke="black" d="M574.18,-822.35C574.18,-822.35 816.18,-822.35 816.18,-822.35 822.18,-822.35 828.18,-828.35 828.18,-834.35 828.18,-834.35 828.18,-1032.85 828.18,-1032.85 828.18,-1038.85 822.18,-1044.85 816.18,-1044.85 816.18,-1044.85 574.18,-1044.85 574.18,-1044.85 568.18,-1044.85 562.18,-1038.85 562.18,-1032.85 562.18,-1032.85 562.18,-834.35 562.18,-834.35 562.18,-828.35 568.18,-822.35 574.18,-822.35"/>
<text text-anchor="middle" x="695.18" y="-1029.65" font-family="Courier,monospace" font-size="14.00">Random pseudo&#45;haploid sampling</text>
</g>
<g id="clust14" class="cluster">
<title>cluster_pileupcaller</title>
<path fill="none" stroke="black" stroke-dasharray="5,2" d="M582.18,-830.35C582.18,-830.35 674.18,-830.35 674.18,-830.35 680.18,-830.35 686.18,-836.35 686.18,-842.35 686.18,-842.35 686.18,-896.35 686.18,-896.35 686.18,-902.35 680.18,-908.35 674.18,-908.35 674.18,-908.35 582.18,-908.35 582.18,-908.35 576.18,-908.35 570.18,-902.35 570.18,-896.35 570.18,-896.35 570.18,-842.35 570.18,-842.35 570.18,-836.35 576.18,-830.35 582.18,-830.35"/>
<text text-anchor="middle" x="628.18" y="-893.15" font-family="Courier,monospace" font-size="14.00">PileupCaller</text>
</g>
<g id="clust15" class="cluster">
<title>cluster_angsd</title>
<path fill="none" stroke="black" stroke-dasharray="5,2" d="M706.18,-830.35C706.18,-830.35 808.18,-830.35 808.18,-830.35 814.18,-830.35 820.18,-836.35 820.18,-842.35 820.18,-842.35 820.18,-1001.85 820.18,-1001.85 820.18,-1007.85 814.18,-1013.85 808.18,-1013.85 808.18,-1013.85 706.18,-1013.85 706.18,-1013.85 700.18,-1013.85 694.18,-1007.85 694.18,-1001.85 694.18,-1001.85 694.18,-842.35 694.18,-842.35 694.18,-836.35 700.18,-830.35 706.18,-830.35"/>
<text text-anchor="middle" x="757.18" y="-998.65" font-family="Courier,monospace" font-size="14.00">ANGSD</text>
</g>
<g id="clust16" class="cluster">
<title>cluster_merge_reich</title>
<path fill="none" stroke="black" stroke-dasharray="5,2" d="M386.18,-530.35C386.18,-530.35 534.18,-530.35 534.18,-530.35 540.18,-530.35 546.18,-536.35 546.18,-542.35 546.18,-542.35 546.18,-896.35 546.18,-896.35 546.18,-902.35 540.18,-908.35 534.18,-908.35 534.18,-908.35 386.18,-908.35 386.18,-908.35 380.18,-908.35 374.18,-902.35 374.18,-896.35 374.18,-896.35 374.18,-542.35 374.18,-542.35 374.18,-536.35 380.18,-530.35 386.18,-530.35"/>
<text text-anchor="middle" x="460.18" y="-893.15" font-family="Courier,monospace" font-size="14.00">Merge Reich </text>
</g>
<g id="clust17" class="cluster">
<title>cluster_kinship</title>
<path fill="none" stroke="black" d="M62.18,-8C62.18,-8 1268.18,-8 1268.18,-8 1274.18,-8 1280.18,-14 1280.18,-20 1280.18,-20 1280.18,-510.35 1280.18,-510.35 1280.18,-516.35 1274.18,-522.35 1268.18,-522.35 1268.18,-522.35 62.18,-522.35 62.18,-522.35 56.18,-522.35 50.18,-516.35 50.18,-510.35 50.18,-510.35 50.18,-20 50.18,-20 50.18,-14 56.18,-8 62.18,-8"/>
<text text-anchor="middle" x="665.18" y="-507.15" font-family="Courier,monospace" font-size="14.00">Kinship determination</text>
</g>
<g id="clust18" class="cluster">
<title>cluster_KIN</title>
<path fill="none" stroke="black" d="M736.18,-16C736.18,-16 814.18,-16 814.18,-16 820.18,-16 826.18,-22 826.18,-28 826.18,-28 826.18,-464.76 826.18,-464.76 826.18,-470.76 820.18,-476.76 814.18,-476.76 814.18,-476.76 736.18,-476.76 736.18,-476.76 730.18,-476.76 724.18,-470.76 724.18,-464.76 724.18,-464.76 724.18,-28 724.18,-28 724.18,-22 730.18,-16 736.18,-16"/>
<text text-anchor="middle" x="775.18" y="-461.56" font-family="Courier,monospace" font-size="14.00">KIN</text>
</g>
<g id="clust19" class="cluster">
<title>cluster_TKGWV2</title>
<path fill="none" stroke="black" d="M846.18,-16C846.18,-16 1260.18,-16 1260.18,-16 1266.18,-16 1272.18,-22 1272.18,-28 1272.18,-28 1272.18,-464.76 1272.18,-464.76 1272.18,-470.76 1266.18,-476.76 1260.18,-476.76 1260.18,-476.76 846.18,-476.76 846.18,-476.76 840.18,-476.76 834.18,-470.76 834.18,-464.76 834.18,-464.76 834.18,-28 834.18,-28 834.18,-22 840.18,-16 846.18,-16"/>
<text text-anchor="middle" x="1053.18" y="-461.56" font-family="Courier,monospace" font-size="14.00">TKGWV2</text>
</g>
<g id="clust20" class="cluster">
<title>cluster_GRUPS</title>
<path fill="none" stroke="black" d="M70.18,-16C70.18,-16 368.18,-16 368.18,-16 374.18,-16 380.18,-22 380.18,-28 380.18,-28 380.18,-464.76 380.18,-464.76 380.18,-470.76 374.18,-476.76 368.18,-476.76 368.18,-476.76 70.18,-476.76 70.18,-476.76 64.18,-476.76 58.18,-470.76 58.18,-464.76 58.18,-464.76 58.18,-28 58.18,-28 58.18,-22 64.18,-16 70.18,-16"/>
<text text-anchor="middle" x="219.18" y="-461.56" font-family="Courier,monospace" font-size="14.00">GRUPS</text>
</g>
<g id="clust21" class="cluster">
<title>cluster_READ</title>
<path fill="none" stroke="black" d="M400.18,-16C400.18,-16 704.18,-16 704.18,-16 710.18,-16 716.18,-22 716.18,-28 716.18,-28 716.18,-479.35 716.18,-479.35 716.18,-485.35 710.18,-491.35 704.18,-491.35 704.18,-491.35 400.18,-491.35 400.18,-491.35 394.18,-491.35 388.18,-485.35 388.18,-479.35 388.18,-479.35 388.18,-28 388.18,-28 388.18,-22 394.18,-16 400.18,-16"/>
<text text-anchor="middle" x="552.18" y="-476.15" font-family="Courier,monospace" font-size="14.00">READ</text>
</g>
<!-- download_reich -->
<g id="node1" class="node">
<title>download_reich</title>
<path fill="#fafafa" stroke="red" stroke-width="2" d="M324.68,-982.85C324.68,-982.85 225.68,-982.85 225.68,-982.85 219.68,-982.85 213.68,-976.85 213.68,-970.85 213.68,-970.85 213.68,-955.85 213.68,-955.85 213.68,-949.85 219.68,-943.85 225.68,-943.85 225.68,-943.85 324.68,-943.85 324.68,-943.85 330.68,-943.85 336.68,-949.85 336.68,-955.85 336.68,-955.85 336.68,-970.85 336.68,-970.85 336.68,-976.85 330.68,-982.85 324.68,-982.85"/>
<text text-anchor="middle" x="275.18" y="-960.85" font-family="Calibri" font-size="10.00">Download Reich 1240K</text>
</g>
<!-- eigenstrat_to_plink -->
<g id="node39" class="node">
<title>eigenstrat_to_plink</title>
<path fill="#fafafa" stroke="#7ccd7c" stroke-width="2" d="M512.18,-877.35C512.18,-877.35 398.18,-877.35 398.18,-877.35 392.18,-877.35 386.18,-871.35 386.18,-865.35 386.18,-865.35 386.18,-850.35 386.18,-850.35 386.18,-844.35 392.18,-838.35 398.18,-838.35 398.18,-838.35 512.18,-838.35 512.18,-838.35 518.18,-838.35 524.18,-844.35 524.18,-850.35 524.18,-850.35 524.18,-865.35 524.18,-865.35 524.18,-871.35 518.18,-877.35 512.18,-877.35"/>
<text text-anchor="middle" x="455.18" y="-855.35" font-family="Calibri" font-size="10.00">Convertf eigenstrat to plink</text>
</g>
<!-- download_reich&#45;&gt;eigenstrat_to_plink -->
<g id="edge52" class="edge">
<title>download_reich&#45;&gt;eigenstrat_to_plink</title>
<path fill="none" stroke="black" d="M307.36,-943.85C337.98,-926.24 384.08,-899.73 416.65,-881"/>
<polygon fill="black" stroke="black" points="418.12,-882.98 422.97,-877.37 415.68,-878.73 418.12,-882.98"/>
</g>
<!-- run_GRUPS -->
<g id="node56" class="node">
<title>run_GRUPS</title>
<path fill="#fafafa" stroke="greenyellow" stroke-width="2" d="M139.18,-252C139.18,-252 89.18,-252 89.18,-252 83.18,-252 77.18,-246 77.18,-240 77.18,-240 77.18,-225 77.18,-225 77.18,-219 83.18,-213 89.18,-213 89.18,-213 139.18,-213 139.18,-213 145.18,-213 151.18,-219 151.18,-225 151.18,-225 151.18,-240 151.18,-240 151.18,-246 145.18,-252 139.18,-252"/>
<text text-anchor="middle" x="114.18" y="-230" font-family="Calibri" font-size="10.00">Run GRUPS</text>
</g>
<!-- download_reich&#45;&gt;run_GRUPS -->
<g id="edge71" class="edge">
<title>download_reich&#45;&gt;run_GRUPS</title>
<path fill="none" stroke="black" d="M213.52,-945.31C143.3,-921.69 38.18,-871.67 38.18,-783.85 38.18,-783.85 38.18,-783.85 38.18,-425.26 38.18,-363.67 29.14,-342.83 57.18,-288 63.22,-276.17 72.88,-265.48 82.53,-256.76"/>
<polygon fill="black" stroke="black" points="84.19,-258.57 87.87,-252.13 80.98,-254.87 84.19,-258.57"/>
</g>
<!-- download_refgen -->
<g id="node2" class="node">
<title>download_refgen</title>
<path fill="#fafafa" stroke="red" stroke-width="2" d="M1129.18,-2584.72C1129.18,-2584.72 1001.18,-2584.72 1001.18,-2584.72 995.18,-2584.72 989.18,-2578.72 989.18,-2572.72 989.18,-2572.72 989.18,-2557.72 989.18,-2557.72 989.18,-2551.72 995.18,-2545.72 1001.18,-2545.72 1001.18,-2545.72 1129.18,-2545.72 1129.18,-2545.72 1135.18,-2545.72 1141.18,-2551.72 1141.18,-2557.72 1141.18,-2557.72 1141.18,-2572.72 1141.18,-2572.72 1141.18,-2578.72 1135.18,-2584.72 1129.18,-2584.72"/>
<text text-anchor="middle" x="1065.18" y="-2562.72" font-family="Calibri" font-size="10.00">Download Reference Genome</text>
</g>
<!-- decompress_refgen -->
<g id="node3" class="node">
<title>decompress_refgen</title>
<path fill="#fafafa" stroke="green" stroke-width="2" d="M1133.68,-2502.72C1133.68,-2502.72 996.68,-2502.72 996.68,-2502.72 990.68,-2502.72 984.68,-2496.72 984.68,-2490.72 984.68,-2490.72 984.68,-2475.72 984.68,-2475.72 984.68,-2469.72 990.68,-2463.72 996.68,-2463.72 996.68,-2463.72 1133.68,-2463.72 1133.68,-2463.72 1139.68,-2463.72 1145.68,-2469.72 1145.68,-2475.72 1145.68,-2475.72 1145.68,-2490.72 1145.68,-2490.72 1145.68,-2496.72 1139.68,-2502.72 1133.68,-2502.72"/>
<text text-anchor="middle" x="1065.18" y="-2480.72" font-family="Calibri" font-size="10.00">Decompress Reference Genome</text>
</g>
<!-- download_refgen&#45;&gt;decompress_refgen -->
<g id="edge2" class="edge">
<title>download_refgen&#45;&gt;decompress_refgen</title>
<path fill="none" stroke="black" d="M1065.18,-2545.67C1065.18,-2535.14 1065.18,-2521.8 1065.18,-2510.24"/>
<polygon fill="black" stroke="black" points="1067.63,-2509.95 1065.18,-2502.95 1062.73,-2509.95 1067.63,-2509.95"/>
</g>
<!-- index_refgen -->
<g id="node4" class="node">
<title>index_refgen</title>
<path fill="#fafafa" stroke="green" stroke-width="2" d="M964.18,-2381.72C964.18,-2381.72 856.18,-2381.72 856.18,-2381.72 850.18,-2381.72 844.18,-2375.72 844.18,-2369.72 844.18,-2369.72 844.18,-2354.72 844.18,-2354.72 844.18,-2348.72 850.18,-2342.72 856.18,-2342.72 856.18,-2342.72 964.18,-2342.72 964.18,-2342.72 970.18,-2342.72 976.18,-2348.72 976.18,-2354.72 976.18,-2354.72 976.18,-2369.72 976.18,-2369.72 976.18,-2375.72 970.18,-2381.72 964.18,-2381.72"/>
<text text-anchor="middle" x="910.18" y="-2359.72" font-family="Calibri" font-size="10.00">Index Reference Genome</text>
</g>
<!-- decompress_refgen&#45;&gt;index_refgen -->
<g id="edge3" class="edge">
<title>decompress_refgen&#45;&gt;index_refgen</title>
<path fill="none" stroke="black" d="M1020.1,-2463.72C1008.56,-2458.07 996.5,-2451.31 986.18,-2443.72 964.33,-2427.67 943.48,-2404.86 929.17,-2387.62"/>
<polygon fill="black" stroke="black" points="930.9,-2385.87 924.57,-2382.01 927.11,-2388.98 930.9,-2385.87"/>
</g>
<!-- dict_refgen -->
<g id="node5" class="node">
<title>dict_refgen</title>
<path fill="#fafafa" stroke="green" stroke-width="2" d="M1123.68,-2381.72C1123.68,-2381.72 1006.68,-2381.72 1006.68,-2381.72 1000.68,-2381.72 994.68,-2375.72 994.68,-2369.72 994.68,-2369.72 994.68,-2354.72 994.68,-2354.72 994.68,-2348.72 1000.68,-2342.72 1006.68,-2342.72 1006.68,-2342.72 1123.68,-2342.72 1123.68,-2342.72 1129.68,-2342.72 1135.68,-2348.72 1135.68,-2354.72 1135.68,-2354.72 1135.68,-2369.72 1135.68,-2369.72 1135.68,-2375.72 1129.68,-2381.72 1123.68,-2381.72"/>
<text text-anchor="middle" x="1065.18" y="-2359.72" font-family="Calibri" font-size="10.00">Create Sequence Dictionary</text>
</g>
<!-- decompress_refgen&#45;&gt;dict_refgen -->
<g id="edge4" class="edge">
<title>decompress_refgen&#45;&gt;dict_refgen</title>
<path fill="none" stroke="black" d="M1065.18,-2463.63C1065.18,-2443.66 1065.18,-2411.78 1065.18,-2389.31"/>
<polygon fill="black" stroke="black" points="1067.63,-2389.08 1065.18,-2382.08 1062.73,-2389.08 1067.63,-2389.08"/>
</g>
<!-- split_refgen -->
<g id="node6" class="node">
<title>split_refgen</title>
<path fill="#fafafa" stroke="green" stroke-width="2" d="M1270.18,-2381.72C1270.18,-2381.72 1166.18,-2381.72 1166.18,-2381.72 1160.18,-2381.72 1154.18,-2375.72 1154.18,-2369.72 1154.18,-2369.72 1154.18,-2354.72 1154.18,-2354.72 1154.18,-2348.72 1160.18,-2342.72 1166.18,-2342.72 1166.18,-2342.72 1270.18,-2342.72 1270.18,-2342.72 1276.18,-2342.72 1282.18,-2348.72 1282.18,-2354.72 1282.18,-2354.72 1282.18,-2369.72 1282.18,-2369.72 1282.18,-2375.72 1276.18,-2381.72 1270.18,-2381.72"/>
<text text-anchor="middle" x="1218.18" y="-2359.72" font-family="Calibri" font-size="10.00">Split Reference Genome</text>
</g>
<!-- decompress_refgen&#45;&gt;split_refgen -->
<g id="edge5" class="edge">
<title>decompress_refgen&#45;&gt;split_refgen</title>
<path fill="none" stroke="black" d="M1111.77,-2463.52C1123.2,-2457.95 1135.05,-2451.28 1145.18,-2443.72 1166.63,-2427.7 1186.74,-2404.69 1200.4,-2387.38"/>
<polygon fill="black" stroke="black" points="1202.42,-2388.77 1204.77,-2381.74 1198.54,-2385.77 1202.42,-2388.77"/>
</g>
<!-- bwa_samse -->
<g id="node9" class="node">
<title>bwa_samse</title>
<path fill="#fafafa" stroke="#0000ee" stroke-width="2" d="M800.18,-2306.72C800.18,-2306.72 748.18,-2306.72 748.18,-2306.72 742.18,-2306.72 736.18,-2300.72 736.18,-2294.72 736.18,-2294.72 736.18,-2279.72 736.18,-2279.72 736.18,-2273.72 742.18,-2267.72 748.18,-2267.72 748.18,-2267.72 800.18,-2267.72 800.18,-2267.72 806.18,-2267.72 812.18,-2273.72 812.18,-2279.72 812.18,-2279.72 812.18,-2294.72 812.18,-2294.72 812.18,-2300.72 806.18,-2306.72 800.18,-2306.72"/>
<text text-anchor="middle" x="774.18" y="-2284.72" font-family="Calibri" font-size="10.00">BWA samse</text>
</g>
<!-- index_refgen&#45;&gt;bwa_samse -->
<g id="edge1" class="edge">
<title>index_refgen&#45;&gt;bwa_samse</title>
<path fill="none" stroke="black" d="M875.5,-2342.61C863.04,-2335.92 848.59,-2328.16 834.57,-2320.64"/>
<polygon fill="black" stroke="black" points="835.5,-2318.36 828.17,-2317.2 833.18,-2322.67 835.5,-2318.36"/>
</g>
<!-- adapter_removal -->
<g id="node7" class="node">
<title>adapter_removal</title>
<path fill="#fafafa" stroke="blueviolet" stroke-width="2" d="M719.68,-2506.72C719.68,-2506.72 538.68,-2506.72 538.68,-2506.72 532.68,-2506.72 526.68,-2500.72 526.68,-2494.72 526.68,-2494.72 526.68,-2471.72 526.68,-2471.72 526.68,-2465.72 532.68,-2459.72 538.68,-2459.72 538.68,-2459.72 719.68,-2459.72 719.68,-2459.72 725.68,-2459.72 731.68,-2465.72 731.68,-2471.72 731.68,-2471.72 731.68,-2494.72 731.68,-2494.72 731.68,-2500.72 725.68,-2506.72 719.68,-2506.72"/>
<text text-anchor="start" x="545.18" y="-2480.22" font-family="Calibri" font-size="10.00">AdapterRemoval</text>
<text text-anchor="start" x="620.18" y="-2480.22" font-family="Calibri" font-size="10.00">Single&#45;End</text>
<text text-anchor="start" x="669.18" y="-2480.22" font-family="Calibri" font-size="10.00">Paired&#45;End</text>
<polygon fill="blueviolet" stroke="blueviolet" points="666.18,-2474.22 666.18,-2492.22 666.18,-2492.22 666.18,-2474.22 666.18,-2474.22"/>
</g>
<!-- bwa_aln -->
<g id="node8" class="node">
<title>bwa_aln</title>
<path fill="#fafafa" stroke="#0000ee" stroke-width="2" d="M698.18,-2381.72C698.18,-2381.72 660.18,-2381.72 660.18,-2381.72 654.18,-2381.72 648.18,-2375.72 648.18,-2369.72 648.18,-2369.72 648.18,-2354.72 648.18,-2354.72 648.18,-2348.72 654.18,-2342.72 660.18,-2342.72 660.18,-2342.72 698.18,-2342.72 698.18,-2342.72 704.18,-2342.72 710.18,-2348.72 710.18,-2354.72 710.18,-2354.72 710.18,-2369.72 710.18,-2369.72 710.18,-2375.72 704.18,-2381.72 698.18,-2381.72"/>
<text text-anchor="middle" x="679.18" y="-2359.72" font-family="Calibri" font-size="10.00">BWA aln</text>
</g>
<!-- adapter_removal&#45;&gt;bwa_aln -->
<g id="edge6" class="edge">
<title>adapter_removal&#45;&gt;bwa_aln</title>
<path fill="none" stroke="black" stroke-dasharray="5,2" d="M638.7,-2459.56C647.24,-2439.23 659.75,-2409.46 668.6,-2388.4"/>
<polygon fill="black" stroke="black" points="670.88,-2389.29 671.33,-2381.89 666.36,-2387.39 670.88,-2389.29"/>
</g>
<!-- bwa_mem -->
<g id="node12" class="node">
<title>bwa_mem</title>
<path fill="#fafafa" stroke="#0000ee" stroke-width="2" d="M601.18,-2381.72C601.18,-2381.72 553.18,-2381.72 553.18,-2381.72 547.18,-2381.72 541.18,-2375.72 541.18,-2369.72 541.18,-2369.72 541.18,-2354.72 541.18,-2354.72 541.18,-2348.72 547.18,-2342.72 553.18,-2342.72 553.18,-2342.72 601.18,-2342.72 601.18,-2342.72 607.18,-2342.72 613.18,-2348.72 613.18,-2354.72 613.18,-2354.72 613.18,-2369.72 613.18,-2369.72 613.18,-2375.72 607.18,-2381.72 601.18,-2381.72"/>
<text text-anchor="middle" x="577.18" y="-2359.72" font-family="Calibri" font-size="10.00">BWA mem</text>
</g>
<!-- adapter_removal&#45;&gt;bwa_mem -->
<g id="edge7" class="edge">
<title>adapter_removal&#45;&gt;bwa_mem</title>
<path fill="none" stroke="black" stroke-dasharray="5,2" d="M619.27,-2459.56C610.39,-2439.23 597.38,-2409.46 588.18,-2388.4"/>
<polygon fill="black" stroke="black" points="590.38,-2387.32 585.33,-2381.89 585.89,-2389.29 590.38,-2387.32"/>
</g>
<!-- bwa_aln&#45;&gt;bwa_samse -->
<g id="edge8" class="edge">
<title>bwa_aln&#45;&gt;bwa_samse</title>
<path fill="none" stroke="black" d="M703.64,-2342.42C715.94,-2332.97 730.96,-2321.43 743.97,-2311.43"/>
<polygon fill="black" stroke="black" points="745.74,-2313.16 749.79,-2306.96 742.75,-2309.28 745.74,-2313.16"/>
</g>
<!-- bwa_sampe -->
<g id="node10" class="node">
<title>bwa_sampe</title>
<path fill="#fafafa" stroke="#0000ee" stroke-width="2" d="M705.68,-2306.72C705.68,-2306.72 652.68,-2306.72 652.68,-2306.72 646.68,-2306.72 640.68,-2300.72 640.68,-2294.72 640.68,-2294.72 640.68,-2279.72 640.68,-2279.72 640.68,-2273.72 646.68,-2267.72 652.68,-2267.72 652.68,-2267.72 705.68,-2267.72 705.68,-2267.72 711.68,-2267.72 717.68,-2273.72 717.68,-2279.72 717.68,-2279.72 717.68,-2294.72 717.68,-2294.72 717.68,-2300.72 711.68,-2306.72 705.68,-2306.72"/>
<text text-anchor="middle" x="679.18" y="-2284.72" font-family="Calibri" font-size="10.00">BWA sampe</text>
</g>
<!-- bwa_aln&#45;&gt;bwa_sampe -->
<g id="edge9" class="edge">
<title>bwa_aln&#45;&gt;bwa_sampe</title>
<path fill="none" stroke="black" d="M679.18,-2342.42C679.18,-2333.82 679.18,-2323.49 679.18,-2314.17"/>
<polygon fill="black" stroke="black" points="681.63,-2313.96 679.18,-2306.96 676.73,-2313.96 681.63,-2313.96"/>
</g>
<!-- samtools_merge_aln -->
<g id="node11" class="node">
<title>samtools_merge_aln</title>
<path fill="#fafafa" stroke="#0000ee" stroke-width="2" d="M761.18,-2231.72C761.18,-2231.72 691.18,-2231.72 691.18,-2231.72 685.18,-2231.72 679.18,-2225.72 679.18,-2219.72 679.18,-2219.72 679.18,-2204.72 679.18,-2204.72 679.18,-2198.72 685.18,-2192.72 691.18,-2192.72 691.18,-2192.72 761.18,-2192.72 761.18,-2192.72 767.18,-2192.72 773.18,-2198.72 773.18,-2204.72 773.18,-2204.72 773.18,-2219.72 773.18,-2219.72 773.18,-2225.72 767.18,-2231.72 761.18,-2231.72"/>
<text text-anchor="middle" x="726.18" y="-2209.72" font-family="Calibri" font-size="10.00">Samtools merge</text>
</g>
<!-- bwa_samse&#45;&gt;samtools_merge_aln -->
<g id="edge11" class="edge">
<title>bwa_samse&#45;&gt;samtools_merge_aln:ne</title>
<path fill="none" stroke="black" d="M779.72,-2267.52C781.56,-2257.86 782.1,-2246.27 777.35,-2237.39"/>
<polygon fill="black" stroke="black" points="779.3,-2235.9 773.18,-2231.72 775.36,-2238.81 779.3,-2235.9"/>
</g>
<!-- bwa_sampe&#45;&gt;samtools_merge_aln -->
<g id="edge10" class="edge">
<title>bwa_sampe&#45;&gt;samtools_merge_aln:nw</title>
<path fill="none" stroke="black" d="M673.18,-2267.52C671.12,-2257.86 670.36,-2246.27 675.03,-2237.39"/>
<polygon fill="black" stroke="black" points="677.01,-2238.82 679.18,-2231.72 673.06,-2235.92 677.01,-2238.82"/>
</g>
<!-- define_aligner_method -->
<g id="node14" class="node">
<title>define_aligner_method</title>
<path fill="#fafafa" stroke="#0000ee" stroke-width="2" d="M572.13,-2109.48C572.13,-2109.48 655.46,-2091.05 655.46,-2091.05 661.32,-2089.76 673.03,-2089.76 678.89,-2091.05 678.89,-2091.05 762.22,-2109.48 762.22,-2109.48 768.08,-2110.78 773.92,-2118.07 773.91,-2124.07 773.91,-2124.07 773.87,-2138.28 773.87,-2138.28 773.86,-2144.28 767.84,-2150.28 761.84,-2150.28 761.84,-2150.28 572.51,-2150.28 572.51,-2150.28 566.51,-2150.28 560.5,-2144.28 560.48,-2138.28 560.48,-2138.28 560.44,-2124.07 560.44,-2124.07 560.43,-2118.07 566.27,-2110.78 572.13,-2109.48"/>
<text text-anchor="middle" x="667.18" y="-2120.13" font-family="Calibri" font-size="10.00">Define Aligner Method</text>
</g>
<!-- samtools_merge_aln&#45;&gt;define_aligner_method -->
<g id="edge13" class="edge">
<title>samtools_merge_aln&#45;&gt;define_aligner_method</title>
<path fill="none" stroke="black" d="M713.66,-2192.65C706.57,-2182.12 697.49,-2168.64 689.24,-2156.39"/>
<polygon fill="black" stroke="black" points="691.21,-2154.93 685.27,-2150.49 687.15,-2157.67 691.21,-2154.93"/>
</g>
<!-- samtools_merge_mem -->
<g id="node13" class="node">
<title>samtools_merge_mem</title>
<path fill="#fafafa" stroke="#0000ee" stroke-width="2" d="M604.18,-2231.72C604.18,-2231.72 534.18,-2231.72 534.18,-2231.72 528.18,-2231.72 522.18,-2225.72 522.18,-2219.72 522.18,-2219.72 522.18,-2204.72 522.18,-2204.72 522.18,-2198.72 528.18,-2192.72 534.18,-2192.72 534.18,-2192.72 604.18,-2192.72 604.18,-2192.72 610.18,-2192.72 616.18,-2198.72 616.18,-2204.72 616.18,-2204.72 616.18,-2219.72 616.18,-2219.72 616.18,-2225.72 610.18,-2231.72 604.18,-2231.72"/>
<text text-anchor="middle" x="569.18" y="-2209.72" font-family="Calibri" font-size="10.00">Samtools merge</text>
</g>
<!-- bwa_mem&#45;&gt;samtools_merge_mem -->
<g id="edge12" class="edge">
<title>bwa_mem&#45;&gt;samtools_merge_mem</title>
<path fill="none" stroke="black" d="M576.16,-2342.48C574.74,-2316.23 572.16,-2268.45 570.56,-2238.91"/>
<polygon fill="black" stroke="black" points="573,-2238.67 570.18,-2231.81 568.11,-2238.94 573,-2238.67"/>
</g>
<!-- samtools_merge_mem&#45;&gt;define_aligner_method -->
<g id="edge14" class="edge">
<title>samtools_merge_mem&#45;&gt;define_aligner_method</title>
<path fill="none" stroke="black" d="M589.96,-2192.65C602.06,-2181.83 617.65,-2167.9 631.64,-2155.39"/>
<polygon fill="black" stroke="black" points="633.54,-2156.99 637.12,-2150.49 630.27,-2153.33 633.54,-2156.99"/>
</g>
<!-- samtools_filter_umap -->
<g id="node15" class="node">
<title>samtools_filter_umap</title>
<path fill="#fafafa" stroke="yellow" stroke-width="2" d="M723.68,-2041.55C723.68,-2041.55 610.68,-2041.55 610.68,-2041.55 604.68,-2041.55 598.68,-2035.55 598.68,-2029.55 598.68,-2029.55 598.68,-2014.55 598.68,-2014.55 598.68,-2008.55 604.68,-2002.55 610.68,-2002.55 610.68,-2002.55 723.68,-2002.55 723.68,-2002.55 729.68,-2002.55 735.68,-2008.55 735.68,-2014.55 735.68,-2014.55 735.68,-2029.55 735.68,-2029.55 735.68,-2035.55 729.68,-2041.55 723.68,-2041.55"/>
<text text-anchor="middle" x="667.18" y="-2019.55" font-family="Calibri" font-size="10.00">Samtools Filter Unmapped</text>
</g>
<!-- define_aligner_method&#45;&gt;samtools_filter_umap -->
<g id="edge15" class="edge">
<title>define_aligner_method&#45;&gt;samtools_filter_umap</title>
<path fill="none" stroke="black" d="M667.18,-2088.53C667.18,-2075.56 667.18,-2060.91 667.18,-2048.76"/>
<polygon fill="black" stroke="black" points="669.63,-2048.55 667.18,-2041.55 664.73,-2048.55 669.63,-2048.55"/>
</g>
<!-- samtools_merge_runs -->
<g id="node16" class="node">
<title>samtools_merge_runs</title>
<path fill="#fafafa" stroke="yellow" stroke-width="2" d="M712.18,-1966.55C712.18,-1966.55 622.18,-1966.55 622.18,-1966.55 616.18,-1966.55 610.18,-1960.55 610.18,-1954.55 610.18,-1954.55 610.18,-1939.55 610.18,-1939.55 610.18,-1933.55 616.18,-1927.55 622.18,-1927.55 622.18,-1927.55 712.18,-1927.55 712.18,-1927.55 718.18,-1927.55 724.18,-1933.55 724.18,-1939.55 724.18,-1939.55 724.18,-1954.55 724.18,-1954.55 724.18,-1960.55 718.18,-1966.55 712.18,-1966.55"/>
<text text-anchor="middle" x="667.18" y="-1944.55" font-family="Calibri" font-size="10.00">Samtools merge runs</text>
</g>
<!-- samtools_filter_umap&#45;&gt;samtools_merge_runs -->
<g id="edge16" class="edge">
<title>samtools_filter_umap&#45;&gt;samtools_merge_runs</title>
<path fill="none" stroke="black" d="M667.18,-2002.25C667.18,-1993.65 667.18,-1983.32 667.18,-1973.99"/>
<polygon fill="black" stroke="black" points="669.63,-1973.78 667.18,-1966.78 664.73,-1973.78 669.63,-1973.78"/>
</g>
<!-- samtools_sort -->
<g id="node17" class="node">
<title>samtools_sort</title>
<path fill="#fafafa" stroke="yellow" stroke-width="2" d="M696.68,-1891.55C696.68,-1891.55 637.68,-1891.55 637.68,-1891.55 631.68,-1891.55 625.68,-1885.55 625.68,-1879.55 625.68,-1879.55 625.68,-1864.55 625.68,-1864.55 625.68,-1858.55 631.68,-1852.55 637.68,-1852.55 637.68,-1852.55 696.68,-1852.55 696.68,-1852.55 702.68,-1852.55 708.68,-1858.55 708.68,-1864.55 708.68,-1864.55 708.68,-1879.55 708.68,-1879.55 708.68,-1885.55 702.68,-1891.55 696.68,-1891.55"/>
<text text-anchor="middle" x="667.18" y="-1869.55" font-family="Calibri" font-size="10.00">Samtools sort</text>
</g>
<!-- samtools_merge_runs&#45;&gt;samtools_sort -->
<g id="edge17" class="edge">
<title>samtools_merge_runs&#45;&gt;samtools_sort</title>
<path fill="none" stroke="black" d="M667.18,-1927.25C667.18,-1918.65 667.18,-1908.32 667.18,-1898.99"/>
<polygon fill="black" stroke="black" points="669.63,-1898.78 667.18,-1891.78 664.73,-1898.78 669.63,-1898.78"/>
</g>
<!-- picard -->
<g id="node18" class="node">
<title>picard</title>
<path fill="#fafafa" stroke="yellow" stroke-width="2" d="M838.68,-1813.55C838.68,-1813.55 743.68,-1813.55 743.68,-1813.55 737.68,-1813.55 731.68,-1807.55 731.68,-1801.55 731.68,-1801.55 731.68,-1786.55 731.68,-1786.55 731.68,-1780.55 737.68,-1774.55 743.68,-1774.55 743.68,-1774.55 838.68,-1774.55 838.68,-1774.55 844.68,-1774.55 850.68,-1780.55 850.68,-1786.55 850.68,-1786.55 850.68,-1801.55 850.68,-1801.55 850.68,-1807.55 844.68,-1813.55 838.68,-1813.55"/>
<text text-anchor="middle" x="791.18" y="-1791.55" font-family="Calibri" font-size="10.00">Picard MarkDuplicates</text>
</g>
<!-- samtools_sort&#45;&gt;picard -->
<g id="edge18" class="edge">
<title>samtools_sort&#45;&gt;picard</title>
<path fill="none" stroke="black" stroke-dasharray="5,2" d="M707.85,-1852.44C712.74,-1849.91 717.62,-1847.25 722.18,-1844.55 735.58,-1836.59 749.67,-1826.77 761.61,-1817.97"/>
<polygon fill="black" stroke="black" points="763.13,-1819.9 767.28,-1813.75 760.2,-1815.97 763.13,-1819.9"/>
</g>
<!-- dedup -->
<g id="node19" class="node">
<title>dedup</title>
<path fill="#fafafa" stroke="yellow" stroke-width="2" d="M701.18,-1813.55C701.18,-1813.55 633.18,-1813.55 633.18,-1813.55 627.18,-1813.55 621.18,-1807.55 621.18,-1801.55 621.18,-1801.55 621.18,-1786.55 621.18,-1786.55 621.18,-1780.55 627.18,-1774.55 633.18,-1774.55 633.18,-1774.55 701.18,-1774.55 701.18,-1774.55 707.18,-1774.55 713.18,-1780.55 713.18,-1786.55 713.18,-1786.55 713.18,-1801.55 713.18,-1801.55 713.18,-1807.55 707.18,-1813.55 701.18,-1813.55"/>
<text text-anchor="middle" x="667.18" y="-1791.55" font-family="Calibri" font-size="10.00">Apeltzer Dedup</text>
</g>
<!-- samtools_sort&#45;&gt;dedup -->
<g id="edge19" class="edge">
<title>samtools_sort&#45;&gt;dedup</title>
<path fill="none" stroke="black" stroke-dasharray="5,2" d="M667.18,-1852.26C667.18,-1842.78 667.18,-1831.14 667.18,-1820.83"/>
<polygon fill="black" stroke="black" points="669.63,-1820.62 667.18,-1813.62 664.73,-1820.62 669.63,-1820.62"/>
</g>
<!-- rmdup -->
<g id="node20" class="node">
<title>rmdup</title>
<path fill="#fafafa" stroke="yellow" stroke-width="2" d="M591.18,-1813.55C591.18,-1813.55 511.18,-1813.55 511.18,-1813.55 505.18,-1813.55 499.18,-1807.55 499.18,-1801.55 499.18,-1801.55 499.18,-1786.55 499.18,-1786.55 499.18,-1780.55 505.18,-1774.55 511.18,-1774.55 511.18,-1774.55 591.18,-1774.55 591.18,-1774.55 597.18,-1774.55 603.18,-1780.55 603.18,-1786.55 603.18,-1786.55 603.18,-1801.55 603.18,-1801.55 603.18,-1807.55 597.18,-1813.55 591.18,-1813.55"/>
<text text-anchor="middle" x="551.18" y="-1791.55" font-family="Calibri" font-size="10.00">Samtools markdup</text>
</g>
<!-- samtools_sort&#45;&gt;rmdup -->
<g id="edge20" class="edge">
<title>samtools_sort&#45;&gt;rmdup</title>
<path fill="none" stroke="black" stroke-dasharray="5,2" d="M626.05,-1852.55C621.28,-1850.02 616.56,-1847.33 612.18,-1844.55 600.13,-1836.9 587.74,-1827.24 577.3,-1818.48"/>
<polygon fill="black" stroke="black" points="578.63,-1816.4 571.71,-1813.73 575.46,-1820.13 578.63,-1816.4"/>
</g>
<!-- define_dedup_input_bam -->
<g id="node21" class="node">
<title>define_dedup_input_bam</title>
<path fill="#fafafa" stroke="yellow" stroke-width="2" d="M599.16,-1691.42C599.16,-1691.42 687.43,-1672.77 687.43,-1672.77 693.3,-1671.53 705.05,-1671.53 710.92,-1672.77 710.92,-1672.77 799.19,-1691.42 799.19,-1691.42 805.06,-1692.66 810.91,-1699.9 810.89,-1705.9 810.89,-1705.9 810.86,-1720.11 810.86,-1720.11 810.84,-1726.11 804.82,-1732.11 798.82,-1732.11 798.82,-1732.11 599.53,-1732.11 599.53,-1732.11 593.53,-1732.11 587.51,-1726.11 587.49,-1720.11 587.49,-1720.11 587.46,-1705.9 587.46,-1705.9 587.44,-1699.9 593.29,-1692.66 599.16,-1691.42"/>
<text text-anchor="middle" x="699.18" y="-1701.96" font-family="Calibri" font-size="10.00">Define dedup input bam</text>
</g>
<!-- picard&#45;&gt;define_dedup_input_bam -->
<g id="edge21" class="edge">
<title>picard&#45;&gt;define_dedup_input_bam</title>
<path fill="none" stroke="black" d="M771.66,-1774.47C760.3,-1763.66 745.67,-1749.72 732.53,-1737.22"/>
<polygon fill="black" stroke="black" points="734.15,-1735.37 727.39,-1732.32 730.77,-1738.92 734.15,-1735.37"/>
</g>
<!-- dedup&#45;&gt;define_dedup_input_bam -->
<g id="edge22" class="edge">
<title>dedup&#45;&gt;define_dedup_input_bam</title>
<path fill="none" stroke="black" d="M673.96,-1774.47C677.7,-1764.23 682.47,-1751.2 686.84,-1739.22"/>
<polygon fill="black" stroke="black" points="689.26,-1739.73 689.36,-1732.32 684.66,-1738.05 689.26,-1739.73"/>
</g>
<!-- rmdup&#45;&gt;define_dedup_input_bam -->
<g id="edge23" class="edge">
<title>rmdup&#45;&gt;define_dedup_input_bam</title>
<path fill="none" stroke="black" d="M582.56,-1774.47C601.56,-1763.23 626.25,-1748.62 648.02,-1735.73"/>
<polygon fill="black" stroke="black" points="649.3,-1737.83 654.07,-1732.15 646.8,-1733.61 649.3,-1737.83"/>
</g>
<!-- mapdamage -->
<g id="node22" class="node">
<title>mapdamage</title>
<path fill="#fafafa" stroke="yellow" stroke-width="2" d="M766.18,-1623.37C766.18,-1623.37 698.18,-1623.37 698.18,-1623.37 692.18,-1623.37 686.18,-1617.37 686.18,-1611.37 686.18,-1611.37 686.18,-1596.37 686.18,-1596.37 686.18,-1590.37 692.18,-1584.37 698.18,-1584.37 698.18,-1584.37 766.18,-1584.37 766.18,-1584.37 772.18,-1584.37 778.18,-1590.37 778.18,-1596.37 778.18,-1596.37 778.18,-1611.37 778.18,-1611.37 778.18,-1617.37 772.18,-1623.37 766.18,-1623.37"/>
<text text-anchor="middle" x="732.18" y="-1601.37" font-family="Calibri" font-size="10.00">MapDamage&#45;v2</text>
</g>
<!-- define_dedup_input_bam&#45;&gt;mapdamage -->
<g id="edge24" class="edge">
<title>define_dedup_input_bam&#45;&gt;mapdamage</title>
<path fill="none" stroke="black" stroke-dasharray="5,2" d="M709.62,-1672.27C714.14,-1658.75 719.37,-1643.12 723.66,-1630.32"/>
<polygon fill="black" stroke="black" points="726.03,-1630.95 725.93,-1623.53 721.38,-1629.39 726.03,-1630.95"/>
</g>
<!-- pmdtools -->
<g id="node23" class="node">
<title>pmdtools</title>
<path fill="#fafafa" stroke="yellow" stroke-width="2" d="M656.18,-1623.37C656.18,-1623.37 612.18,-1623.37 612.18,-1623.37 606.18,-1623.37 600.18,-1617.37 600.18,-1611.37 600.18,-1611.37 600.18,-1596.37 600.18,-1596.37 600.18,-1590.37 606.18,-1584.37 612.18,-1584.37 612.18,-1584.37 656.18,-1584.37 656.18,-1584.37 662.18,-1584.37 668.18,-1590.37 668.18,-1596.37 668.18,-1596.37 668.18,-1611.37 668.18,-1611.37 668.18,-1617.37 662.18,-1623.37 656.18,-1623.37"/>
<text text-anchor="middle" x="634.18" y="-1601.37" font-family="Calibri" font-size="10.00">PMDTools</text>
</g>
<!-- define_dedup_input_bam&#45;&gt;pmdtools -->
<g id="edge25" class="edge">
<title>define_dedup_input_bam&#45;&gt;pmdtools</title>
<path fill="none" stroke="black" stroke-dasharray="5,2" d="M679.85,-1674.15C670.5,-1659.97 659.41,-1643.14 650.49,-1629.62"/>
<polygon fill="black" stroke="black" points="652.46,-1628.16 646.56,-1623.66 648.37,-1630.86 652.46,-1628.16"/>
</g>
<!-- define_masking_input_bam -->
<g id="node26" class="node">
<title>define_masking_input_bam</title>
<path fill="#fafafa" stroke="yellow" stroke-width="2" d="M510.7,-1386.18C510.7,-1386.18 604.41,-1367.31 604.41,-1367.31 610.29,-1366.12 622.06,-1366.12 627.94,-1367.31 627.94,-1367.31 721.65,-1386.18 721.65,-1386.18 727.53,-1387.37 733.4,-1394.55 733.38,-1400.55 733.38,-1400.55 733.34,-1414.76 733.34,-1414.76 733.32,-1420.76 727.31,-1426.76 721.31,-1426.76 721.31,-1426.76 511.04,-1426.76 511.04,-1426.76 505.04,-1426.76 499.03,-1420.76 499.01,-1414.76 499.01,-1414.76 498.97,-1400.55 498.97,-1400.55 498.95,-1394.55 504.82,-1387.37 510.7,-1386.18"/>
<text text-anchor="middle" x="616.18" y="-1396.61" font-family="Calibri" font-size="10.00">Define masking input bam</text>
</g>
<!-- define_dedup_input_bam&#45;&gt;define_masking_input_bam -->
<g id="edge38" class="edge">
<title>define_dedup_input_bam&#45;&gt;define_masking_input_bam</title>
<path fill="none" stroke="black" stroke-dasharray="5,2" d="M610.73,-1688.92C592.1,-1681.63 574.64,-1670.7 563.18,-1654.37 516.65,-1588.11 537.94,-1549.13 563.18,-1472.2 567.88,-1457.86 576.64,-1444.03 585.7,-1432.38"/>
<polygon fill="black" stroke="black" points="587.68,-1433.84 590.16,-1426.85 583.86,-1430.76 587.68,-1433.84"/>
</g>
<!-- define_statistics_input -->
<g id="node27" class="node">
<title>define_statistics_input</title>
<path fill="#fafafa" stroke="#ee6a50" stroke-width="2" d="M1238.95,-1157.02C1238.95,-1157.02 1333.41,-1138.12 1333.41,-1138.12 1339.29,-1136.94 1351.06,-1136.94 1356.94,-1138.12 1356.94,-1138.12 1451.4,-1157.02 1451.4,-1157.02 1457.28,-1158.2 1463.15,-1165.38 1463.13,-1171.38 1463.13,-1171.38 1463.09,-1185.58 1463.09,-1185.58 1463.07,-1191.58 1457.05,-1197.58 1451.05,-1197.58 1451.05,-1197.58 1239.3,-1197.58 1239.3,-1197.58 1233.3,-1197.58 1227.28,-1191.58 1227.26,-1185.58 1227.26,-1185.58 1227.22,-1171.38 1227.22,-1171.38 1227.2,-1165.38 1233.07,-1158.2 1238.95,-1157.02"/>
<text text-anchor="middle" x="1345.18" y="-1167.44" font-family="Calibri" font-size="10.00">Define statistics input bam</text>
</g>
<!-- define_dedup_input_bam&#45;&gt;define_statistics_input -->
<g id="edge26" class="edge">
<title>define_dedup_input_bam&#45;&gt;define_statistics_input</title>
<path fill="none" stroke="black" d="M810.99,-1701.23C938.99,-1692.03 1131.18,-1654.97 1131.18,-1515.29 1131.18,-1515.29 1131.18,-1515.29 1131.18,-1398.11 1131.18,-1307.62 1222.26,-1238.51 1285.58,-1201.4"/>
<polygon fill="black" stroke="black" points="1287.17,-1203.31 1292,-1197.69 1284.71,-1199.07 1287.17,-1203.31"/>
</g>
<!-- define_pileup_input_bam -->
<g id="node34" class="node">
<title>define_pileup_input_bam</title>
<path fill="#fafafa" stroke="#ee1289" stroke-width="2" d="M609.91,-1156.88C609.91,-1156.88 697.44,-1138.26 697.44,-1138.26 703.31,-1137.01 715.04,-1137.01 720.91,-1138.26 720.91,-1138.26 808.44,-1156.88 808.44,-1156.88 814.31,-1158.13 820.16,-1165.38 820.15,-1171.38 820.15,-1171.38 820.11,-1185.58 820.11,-1185.58 820.09,-1191.58 814.08,-1197.58 808.08,-1197.58 808.08,-1197.58 610.27,-1197.58 610.27,-1197.58 604.27,-1197.58 598.26,-1191.58 598.24,-1185.58 598.24,-1185.58 598.2,-1171.38 598.2,-1171.38 598.19,-1165.38 604.04,-1158.13 609.91,-1156.88"/>
<text text-anchor="middle" x="709.18" y="-1167.44" font-family="Calibri" font-size="10.00">Define pileup input bam</text>
</g>
<!-- define_dedup_input_bam&#45;&gt;define_pileup_input_bam -->
<g id="edge42" class="edge">
<title>define_dedup_input_bam&#45;&gt;define_pileup_input_bam</title>
<path fill="none" stroke="black" stroke-dasharray="5,2" d="M773.11,-1685.75C789.24,-1678.55 804.63,-1668.47 815.18,-1654.37 852.46,-1604.56 831.18,-1577.51 831.18,-1515.29 831.18,-1515.29 831.18,-1515.29 831.18,-1398.11 831.18,-1320.99 775.93,-1244.79 739.79,-1203.2"/>
<polygon fill="black" stroke="black" points="741.51,-1201.44 735.05,-1197.81 737.83,-1204.68 741.51,-1201.44"/>
</g>
<!-- define_rescale_input_bam -->
<g id="node24" class="node">
<title>define_rescale_input_bam</title>
<path fill="#fafafa" stroke="yellow" stroke-width="2" d="M587.18,-1501.29C587.18,-1501.29 677.43,-1482.55 677.43,-1482.55 683.3,-1481.33 695.05,-1481.33 700.92,-1482.55 700.92,-1482.55 791.17,-1501.29 791.17,-1501.29 797.05,-1502.51 802.91,-1509.72 802.89,-1515.72 802.89,-1515.72 802.85,-1529.93 802.85,-1529.93 802.83,-1535.93 796.82,-1541.93 790.82,-1541.93 790.82,-1541.93 587.53,-1541.93 587.53,-1541.93 581.53,-1541.93 575.52,-1535.93 575.5,-1529.93 575.5,-1529.93 575.46,-1515.72 575.46,-1515.72 575.44,-1509.72 581.3,-1502.51 587.18,-1501.29"/>
<text text-anchor="middle" x="689.18" y="-1511.79" font-family="Calibri" font-size="10.00">Define rescale input bam</text>
</g>
<!-- mapdamage&#45;&gt;define_rescale_input_bam -->
<g id="edge27" class="edge">
<title>mapdamage&#45;&gt;define_rescale_input_bam</title>
<path fill="none" stroke="black" d="M723.06,-1584.3C717.98,-1573.96 711.51,-1560.78 705.58,-1548.71"/>
<polygon fill="black" stroke="black" points="707.65,-1547.35 702.36,-1542.14 703.25,-1549.51 707.65,-1547.35"/>
</g>
<!-- pmdtools&#45;&gt;define_rescale_input_bam -->
<g id="edge28" class="edge">
<title>pmdtools&#45;&gt;define_rescale_input_bam</title>
<path fill="none" stroke="black" d="M645.84,-1584.3C652.39,-1573.86 660.76,-1560.53 668.4,-1548.37"/>
<polygon fill="black" stroke="black" points="670.66,-1549.38 672.31,-1542.14 666.51,-1546.77 670.66,-1549.38"/>
</g>
<!-- define_rescale_input_bam&#45;&gt;define_masking_input_bam -->
<g id="edge39" class="edge">
<title>define_rescale_input_bam&#45;&gt;define_masking_input_bam</title>
<path fill="none" stroke="black" stroke-dasharray="5,2" d="M670.19,-1483.85C660.19,-1468.35 647.9,-1449.3 637.57,-1433.28"/>
<polygon fill="black" stroke="black" points="639.42,-1431.63 633.57,-1427.08 635.3,-1434.29 639.42,-1431.63"/>
</g>
<!-- define_rescale_input_bam&#45;&gt;define_pileup_input_bam -->
<g id="edge41" class="edge">
<title>define_rescale_input_bam&#45;&gt;define_pileup_input_bam</title>
<path fill="none" stroke="black" stroke-dasharray="5,2" d="M727.28,-1487.88C734.54,-1481.11 741.12,-1473.15 745.18,-1464.2 784.75,-1376.88 747.35,-1260.74 724.28,-1204.41"/>
<polygon fill="black" stroke="black" points="726.49,-1203.36 721.54,-1197.85 721.97,-1205.25 726.49,-1203.36"/>
</g>
<!-- pmd_mask -->
<g id="node25" class="node">
<title>pmd_mask</title>
<path fill="#fafafa" stroke="yellow" stroke-width="2" d="M679.68,-1329.02C679.68,-1329.02 632.68,-1329.02 632.68,-1329.02 626.68,-1329.02 620.68,-1323.02 620.68,-1317.02 620.68,-1317.02 620.68,-1302.02 620.68,-1302.02 620.68,-1296.02 626.68,-1290.02 632.68,-1290.02 632.68,-1290.02 679.68,-1290.02 679.68,-1290.02 685.68,-1290.02 691.68,-1296.02 691.68,-1302.02 691.68,-1302.02 691.68,-1317.02 691.68,-1317.02 691.68,-1323.02 685.68,-1329.02 679.68,-1329.02"/>
<text text-anchor="middle" x="656.18" y="-1307.02" font-family="Calibri" font-size="10.00">pmd&#45;mask</text>
</g>
<!-- pmd_mask&#45;&gt;define_pileup_input_bam -->
<g id="edge43" class="edge">
<title>pmd_mask&#45;&gt;define_pileup_input_bam</title>
<path fill="none" stroke="black" stroke-dasharray="5,2" d="M663.32,-1289.97C671.76,-1268.06 685.96,-1231.2 696.32,-1204.3"/>
<polygon fill="black" stroke="black" points="698.64,-1205.1 698.87,-1197.68 694.07,-1203.34 698.64,-1205.1"/>
</g>
<!-- define_masking_input_bam&#45;&gt;pmd_mask -->
<g id="edge40" class="edge">
<title>define_masking_input_bam&#45;&gt;pmd_mask</title>
<path fill="none" stroke="black" d="M630.17,-1367.48C634.89,-1357.14 640.1,-1345.72 644.62,-1335.83"/>
<polygon fill="black" stroke="black" points="646.93,-1336.65 647.61,-1329.27 642.48,-1334.62 646.93,-1336.65"/>
</g>
<!-- mosdepth -->
<g id="node28" class="node">
<title>mosdepth</title>
<path fill="#fafafa" stroke="#ee6a50" stroke-width="2" d="M1244.18,-1099.85C1244.18,-1099.85 1122.18,-1099.85 1122.18,-1099.85 1116.18,-1099.85 1110.18,-1093.85 1110.18,-1087.85 1110.18,-1087.85 1110.18,-1072.85 1110.18,-1072.85 1110.18,-1066.85 1116.18,-1060.85 1122.18,-1060.85 1122.18,-1060.85 1244.18,-1060.85 1244.18,-1060.85 1250.18,-1060.85 1256.18,-1066.85 1256.18,-1072.85 1256.18,-1072.85 1256.18,-1087.85 1256.18,-1087.85 1256.18,-1093.85 1250.18,-1099.85 1244.18,-1099.85"/>
<text text-anchor="middle" x="1183.18" y="-1077.85" font-family="Calibri" font-size="10.00">mosdepth Sequencing Depth</text>
</g>
<!-- define_statistics_input&#45;&gt;mosdepth -->
<g id="edge29" class="edge">
<title>define_statistics_input&#45;&gt;mosdepth</title>
<path fill="none" stroke="black" d="M1300.05,-1144.54C1276.17,-1131.63 1247.09,-1115.9 1223.9,-1103.37"/>
<polygon fill="black" stroke="black" points="1224.85,-1101.1 1217.53,-1099.92 1222.52,-1105.41 1224.85,-1101.1"/>
</g>
<!-- genomecov -->
<g id="node29" class="node">
<title>genomecov</title>
<path fill="#fafafa" stroke="#ee6a50" stroke-width="2" d="M1403.68,-1099.85C1403.68,-1099.85 1286.68,-1099.85 1286.68,-1099.85 1280.68,-1099.85 1274.68,-1093.85 1274.68,-1087.85 1274.68,-1087.85 1274.68,-1072.85 1274.68,-1072.85 1274.68,-1066.85 1280.68,-1060.85 1286.68,-1060.85 1286.68,-1060.85 1403.68,-1060.85 1403.68,-1060.85 1409.68,-1060.85 1415.68,-1066.85 1415.68,-1072.85 1415.68,-1072.85 1415.68,-1087.85 1415.68,-1087.85 1415.68,-1093.85 1409.68,-1099.85 1403.68,-1099.85"/>
<text text-anchor="middle" x="1345.18" y="-1077.85" font-family="Calibri" font-size="10.00">bedtools Genome Coverage</text>
</g>
<!-- define_statistics_input&#45;&gt;genomecov -->
<g id="edge30" class="edge">
<title>define_statistics_input&#45;&gt;genomecov</title>
<path fill="none" stroke="black" d="M1345.18,-1135.82C1345.18,-1126.44 1345.18,-1116.35 1345.18,-1107.45"/>
<polygon fill="black" stroke="black" points="1347.63,-1107.28 1345.18,-1100.28 1342.73,-1107.28 1347.63,-1107.28"/>
</g>
<!-- plot_cov -->
<g id="node31" class="node">
<title>plot_cov</title>
<path fill="#fafafa" stroke="#ee6a50" stroke-width="2" d="M1526.68,-1099.85C1526.68,-1099.85 1445.68,-1099.85 1445.68,-1099.85 1439.68,-1099.85 1433.68,-1093.85 1433.68,-1087.85 1433.68,-1087.85 1433.68,-1072.85 1433.68,-1072.85 1433.68,-1066.85 1439.68,-1060.85 1445.68,-1060.85 1445.68,-1060.85 1526.68,-1060.85 1526.68,-1060.85 1532.68,-1060.85 1538.68,-1066.85 1538.68,-1072.85 1538.68,-1072.85 1538.68,-1087.85 1538.68,-1087.85 1538.68,-1093.85 1532.68,-1099.85 1526.68,-1099.85"/>
<text text-anchor="middle" x="1486.18" y="-1077.85" font-family="Calibri" font-size="10.00">Plot WGS coverage</text>
</g>
<!-- define_statistics_input&#45;&gt;plot_cov -->
<g id="edge31" class="edge">
<title>define_statistics_input&#45;&gt;plot_cov</title>
<path fill="none" stroke="black" d="M1385.58,-1143.84C1405.93,-1131.19 1430.41,-1115.99 1450.12,-1103.75"/>
<polygon fill="black" stroke="black" points="1451.42,-1105.82 1456.08,-1100.05 1448.84,-1101.66 1451.42,-1105.82"/>
</g>
<!-- sex_assign -->
<g id="node32" class="node">
<title>sex_assign</title>
<path fill="#fafafa" stroke="#ee6a50" stroke-width="2" d="M1663.18,-1099.85C1663.18,-1099.85 1569.18,-1099.85 1569.18,-1099.85 1563.18,-1099.85 1557.18,-1093.85 1557.18,-1087.85 1557.18,-1087.85 1557.18,-1072.85 1557.18,-1072.85 1557.18,-1066.85 1563.18,-1060.85 1569.18,-1060.85 1569.18,-1060.85 1663.18,-1060.85 1663.18,-1060.85 1669.18,-1060.85 1675.18,-1066.85 1675.18,-1072.85 1675.18,-1072.85 1675.18,-1087.85 1675.18,-1087.85 1675.18,-1093.85 1669.18,-1099.85 1663.18,-1099.85"/>
<text text-anchor="middle" x="1616.18" y="-1077.85" font-family="Calibri" font-size="10.00">Compute Rx/Ry ratios.</text>
</g>
<!-- define_statistics_input&#45;&gt;sex_assign -->
<g id="edge32" class="edge">
<title>define_statistics_input&#45;&gt;sex_assign</title>
<path fill="none" stroke="black" d="M1408.71,-1148.4C1451.78,-1134.48 1508.5,-1116.15 1551.75,-1102.17"/>
<polygon fill="black" stroke="black" points="1552.67,-1104.45 1558.58,-1099.97 1551.16,-1099.79 1552.67,-1104.45"/>
</g>
<!-- qc -->
<g id="node33" class="node">
<title>qc</title>
<path fill="#fafafa" stroke="#ee6a50" stroke-width="2" d="M1336.8,-993.75C1336.8,-993.75 1315.55,-971.94 1315.55,-971.94 1311.36,-967.65 1311.36,-959.05 1315.55,-954.75 1315.55,-954.75 1336.8,-932.94 1336.8,-932.94 1340.99,-928.65 1349.36,-928.65 1353.55,-932.94 1353.55,-932.94 1374.8,-954.75 1374.8,-954.75 1378.99,-959.05 1378.99,-967.65 1374.8,-971.94 1374.8,-971.94 1353.55,-993.75 1353.55,-993.75 1349.36,-998.05 1340.99,-998.05 1336.8,-993.75"/>
<text text-anchor="middle" x="1345.18" y="-960.85" font-family="Calibri" font-size="10.00">qc</text>
</g>
<!-- mosdepth&#45;&gt;qc -->
<g id="edge33" class="edge">
<title>mosdepth&#45;&gt;qc</title>
<path fill="none" stroke="black" d="M1209.56,-1060.62C1239.15,-1039.61 1286.93,-1005.69 1317.17,-984.23"/>
<polygon fill="black" stroke="black" points="1318.68,-986.16 1322.97,-980.11 1315.84,-982.17 1318.68,-986.16"/>
</g>
<!-- genomecov&#45;&gt;qc -->
<g id="edge34" class="edge">
<title>genomecov&#45;&gt;qc</title>
<path fill="none" stroke="black" d="M1345.18,-1060.62C1345.18,-1046.92 1345.18,-1027.72 1345.18,-1010.07"/>
<polygon fill="black" stroke="black" points="1347.63,-1009.62 1345.18,-1002.62 1342.73,-1009.62 1347.63,-1009.62"/>
</g>
<!-- panelcov -->
<g id="node30" class="node">
<title>panelcov</title>
<path fill="#fafafa" stroke="#ee6a50" stroke-width="2" d="M1080.18,-1099.85C1080.18,-1099.85 1014.18,-1099.85 1014.18,-1099.85 1008.18,-1099.85 1002.18,-1093.85 1002.18,-1087.85 1002.18,-1087.85 1002.18,-1072.85 1002.18,-1072.85 1002.18,-1066.85 1008.18,-1060.85 1014.18,-1060.85 1014.18,-1060.85 1080.18,-1060.85 1080.18,-1060.85 1086.18,-1060.85 1092.18,-1066.85 1092.18,-1072.85 1092.18,-1072.85 1092.18,-1087.85 1092.18,-1087.85 1092.18,-1093.85 1086.18,-1099.85 1080.18,-1099.85"/>
<text text-anchor="middle" x="1047.18" y="-1077.85" font-family="Calibri" font-size="10.00">Panel coverage</text>
</g>
<!-- panelcov&#45;&gt;qc -->
<g id="edge35" class="edge">
<title>panelcov&#45;&gt;qc</title>
<path fill="none" stroke="black" d="M1083.53,-1060.85C1089.38,-1058.06 1095.41,-1055.3 1101.18,-1052.85 1174.29,-1021.76 1262.45,-991.51 1310.23,-975.69"/>
<polygon fill="black" stroke="black" points="1311.1,-977.99 1316.98,-973.47 1309.57,-973.33 1311.1,-977.99"/>
</g>
<!-- plot_cov&#45;&gt;qc -->
<g id="edge36" class="edge">
<title>plot_cov&#45;&gt;qc</title>
<path fill="none" stroke="black" d="M1463.21,-1060.62C1438.11,-1040.14 1397.96,-1007.4 1371.57,-985.88"/>
<polygon fill="black" stroke="black" points="1372.81,-983.73 1365.84,-981.2 1369.71,-987.52 1372.81,-983.73"/>
</g>
<!-- sex_assign&#45;&gt;qc -->
<g id="edge37" class="edge">
<title>sex_assign&#45;&gt;qc</title>
<path fill="none" stroke="black" d="M1572.33,-1060.74C1518.11,-1037.73 1427.02,-999.08 1378.29,-978.4"/>
<polygon fill="black" stroke="black" points="1379.1,-976.09 1371.7,-975.61 1377.19,-980.6 1379.1,-976.09"/>
</g>
<!-- define_pileup_input_bam&#45;&gt;panelcov -->
<g id="edge50" class="edge">
<title>define_pileup_input_bam&#45;&gt;panelcov</title>
<path fill="none" stroke="black" d="M784.1,-1151.69C840.46,-1138.41 919.47,-1119.11 988.18,-1099.85 990.45,-1099.21 992.77,-1098.55 995.11,-1097.86"/>
<polygon fill="black" stroke="black" points="996.15,-1100.11 1002.16,-1095.77 994.75,-1095.41 996.15,-1100.11"/>
</g>
<!-- pileup -->
<g id="node35" class="node">
<title>pileup</title>
<path fill="#fafafa" stroke="#ee1289" stroke-width="2" d="M715.18,-1099.85C715.18,-1099.85 641.18,-1099.85 641.18,-1099.85 635.18,-1099.85 629.18,-1093.85 629.18,-1087.85 629.18,-1087.85 629.18,-1072.85 629.18,-1072.85 629.18,-1066.85 635.18,-1060.85 641.18,-1060.85 641.18,-1060.85 715.18,-1060.85 715.18,-1060.85 721.18,-1060.85 727.18,-1066.85 727.18,-1072.85 727.18,-1072.85 727.18,-1087.85 727.18,-1087.85 727.18,-1093.85 721.18,-1099.85 715.18,-1099.85"/>
<text text-anchor="middle" x="678.18" y="-1077.85" font-family="Calibri" font-size="10.00">Samtool mpileup</text>
</g>
<!-- define_pileup_input_bam&#45;&gt;pileup -->
<g id="edge44" class="edge">
<title>define_pileup_input_bam&#45;&gt;pileup</title>
<path fill="none" stroke="black" d="M698.16,-1137.81C694.55,-1127.6 690.58,-1116.39 687.13,-1106.66"/>
<polygon fill="black" stroke="black" points="689.38,-1105.66 684.73,-1099.88 684.76,-1107.3 689.38,-1105.66"/>
</g>
<!-- run_Kingaroo -->
<g id="node44" class="node">
<title>run_Kingaroo</title>
<path fill="#fafafa" stroke="#ee9a00" stroke-width="2" d="M804.68,-445.76C804.68,-445.76 745.68,-445.76 745.68,-445.76 739.68,-445.76 733.68,-439.76 733.68,-433.76 733.68,-433.76 733.68,-418.76 733.68,-418.76 733.68,-412.76 739.68,-406.76 745.68,-406.76 745.68,-406.76 804.68,-406.76 804.68,-406.76 810.68,-406.76 816.68,-412.76 816.68,-418.76 816.68,-418.76 816.68,-433.76 816.68,-433.76 816.68,-439.76 810.68,-445.76 804.68,-445.76"/>
<text text-anchor="middle" x="775.18" y="-423.76" font-family="Calibri" font-size="10.00">Run KINgaroo</text>
</g>
<!-- define_pileup_input_bam&#45;&gt;run_Kingaroo -->
<g id="edge57" class="edge">
<title>define_pileup_input_bam&#45;&gt;run_Kingaroo</title>
<path fill="none" stroke="black" d="M741.25,-1142.31C767.21,-1119.11 802.85,-1083.23 824.18,-1044.85 842.19,-1012.43 846.18,-1001.44 846.18,-964.35 846.18,-964.35 846.18,-964.35 846.18,-631.85 846.18,-563.79 810.67,-489.68 789.88,-452.11"/>
<polygon fill="black" stroke="black" points="791.99,-450.87 786.43,-445.97 787.72,-453.27 791.99,-450.87"/>
</g>
<!-- define_TKGWV2_input -->
<g id="node47" class="node">
<title>define_TKGWV2_input</title>
<path fill="#fafafa" stroke="#cd69c9" stroke-width="2" d="M854.22,-309.22C854.22,-309.22 951.4,-290.22 951.4,-290.22 957.29,-289.06 969.06,-289.06 974.95,-290.22 974.95,-290.22 1072.13,-309.22 1072.13,-309.22 1078.02,-310.37 1083.89,-317.53 1083.87,-323.53 1083.87,-323.53 1083.83,-337.74 1083.83,-337.74 1083.81,-343.74 1077.8,-349.74 1071.8,-349.74 1071.8,-349.74 854.55,-349.74 854.55,-349.74 848.55,-349.74 842.54,-343.74 842.52,-337.74 842.52,-337.74 842.48,-323.53 842.48,-323.53 842.46,-317.53 848.33,-310.37 854.22,-309.22"/>
<text text-anchor="middle" x="963.18" y="-319.59" font-family="Calibri" font-size="10.00">Define TKGWV2 Input BAM</text>
</g>
<!-- define_pileup_input_bam&#45;&gt;define_TKGWV2_input -->
<g id="edge60" class="edge">
<title>define_pileup_input_bam&#45;&gt;define_TKGWV2_input</title>
<path fill="none" stroke="black" stroke-dasharray="5,2" d="M775.36,-1149.84C853.85,-1122.65 974.18,-1064.61 974.18,-964.35 974.18,-964.35 974.18,-964.35 974.18,-556.85 974.18,-485.84 969.05,-402.84 965.79,-357.31"/>
<polygon fill="black" stroke="black" points="968.22,-356.87 965.27,-350.06 963.33,-357.22 968.22,-356.87"/>
</g>
<!-- downsample_BAM -->
<g id="node49" class="node">
<title>downsample_BAM</title>
<path fill="none" stroke="#cd69c9" stroke-width="2" stroke-dasharray="5,2" d="M934.18,-445.76C934.18,-445.76 854.18,-445.76 854.18,-445.76 848.18,-445.76 842.18,-439.76 842.18,-433.76 842.18,-433.76 842.18,-418.76 842.18,-418.76 842.18,-412.76 848.18,-406.76 854.18,-406.76 854.18,-406.76 934.18,-406.76 934.18,-406.76 940.18,-406.76 946.18,-412.76 946.18,-418.76 946.18,-418.76 946.18,-433.76 946.18,-433.76 946.18,-439.76 940.18,-445.76 934.18,-445.76"/>
<text text-anchor="middle" x="894.18" y="-423.76" font-family="Calibri" font-size="10.00">Downsample BAM</text>
</g>
<!-- define_pileup_input_bam&#45;&gt;downsample_BAM -->
<g id="edge61" class="edge">
<title>define_pileup_input_bam&#45;&gt;downsample_BAM</title>
<path fill="none" stroke="black" stroke-dasharray="5,2" d="M753.23,-1144.87C807.1,-1111.85 891.18,-1047.07 891.18,-964.35 891.18,-964.35 891.18,-964.35 891.18,-631.85 891.18,-567.58 892.67,-491.96 893.55,-453.14"/>
<polygon fill="black" stroke="black" points="896.01,-452.93 893.72,-445.88 891.11,-452.82 896.01,-452.93"/>
</g>
<!-- pileupCaller -->
<g id="node36" class="node">
<title>pileupCaller</title>
<path fill="#fafafa" stroke="#ee1289" stroke-width="2" d="M643.68,-877.35C643.68,-877.35 590.68,-877.35 590.68,-877.35 584.68,-877.35 578.68,-871.35 578.68,-865.35 578.68,-865.35 578.68,-850.35 578.68,-850.35 578.68,-844.35 584.68,-838.35 590.68,-838.35 590.68,-838.35 643.68,-838.35 643.68,-838.35 649.68,-838.35 655.68,-844.35 655.68,-850.35 655.68,-850.35 655.68,-865.35 655.68,-865.35 655.68,-871.35 649.68,-877.35 643.68,-877.35"/>
<text text-anchor="middle" x="617.18" y="-855.35" font-family="Calibri" font-size="10.00">pileupCaller</text>
</g>
<!-- pileup&#45;&gt;pileupCaller -->
<g id="edge45" class="edge">
<title>pileup&#45;&gt;pileupCaller</title>
<path fill="none" stroke="black" stroke-dasharray="5,2" d="M672.97,-1060.55C662.03,-1021.01 636.63,-929.19 624.24,-884.37"/>
<polygon fill="black" stroke="black" points="626.59,-883.69 622.36,-877.6 621.87,-885 626.59,-883.69"/>
</g>
<!-- angsd_haplo_call -->
<g id="node37" class="node">
<title>angsd_haplo_call</title>
<path fill="#fafafa" stroke="#ee1289" stroke-width="2" d="M798.18,-982.85C798.18,-982.85 714.18,-982.85 714.18,-982.85 708.18,-982.85 702.18,-976.85 702.18,-970.85 702.18,-970.85 702.18,-955.85 702.18,-955.85 702.18,-949.85 708.18,-943.85 714.18,-943.85 714.18,-943.85 798.18,-943.85 798.18,-943.85 804.18,-943.85 810.18,-949.85 810.18,-955.85 810.18,-955.85 810.18,-970.85 810.18,-970.85 810.18,-976.85 804.18,-982.85 798.18,-982.85"/>
<text text-anchor="middle" x="756.18" y="-960.85" font-family="Calibri" font-size="10.00">ANGSD doHaploCall</text>
</g>
<!-- pileup&#45;&gt;angsd_haplo_call -->
<g id="edge46" class="edge">
<title>pileup&#45;&gt;angsd_haplo_call</title>
<path fill="none" stroke="black" stroke-dasharray="5,2" d="M690.88,-1060.62C704.08,-1041.15 724.81,-1010.6 739.36,-989.14"/>
<polygon fill="black" stroke="black" points="741.57,-990.24 743.47,-983.07 737.52,-987.49 741.57,-990.24"/>
</g>
<!-- pileup&#45;&gt;run_GRUPS -->
<g id="edge68" class="edge">
<title>pileup&#45;&gt;run_GRUPS</title>
<path fill="none" stroke="black" d="M629.06,-1079.56C523.87,-1079.41 280.17,-1075.64 204.18,-1044.85 90.46,-998.78 0.18,-981.54 0.18,-858.85 0.18,-858.85 0.18,-858.85 0.18,-425.26 0.18,-362.52 -2.63,-339.53 33.18,-288 42.65,-274.36 56.74,-263.18 70.53,-254.57"/>
<polygon fill="black" stroke="black" points="72.08,-256.5 76.82,-250.79 69.56,-252.29 72.08,-256.5"/>
</g>
<!-- merge_reich -->
<g id="node40" class="node">
<title>merge_reich</title>
<path fill="#fafafa" stroke="#7ccd7c" stroke-width="2" d="M498.68,-802.35C498.68,-802.35 421.68,-802.35 421.68,-802.35 415.68,-802.35 409.68,-796.35 409.68,-790.35 409.68,-790.35 409.68,-775.35 409.68,-775.35 409.68,-769.35 415.68,-763.35 421.68,-763.35 421.68,-763.35 498.68,-763.35 498.68,-763.35 504.68,-763.35 510.68,-769.35 510.68,-775.35 510.68,-775.35 510.68,-790.35 510.68,-790.35 510.68,-796.35 504.68,-802.35 498.68,-802.35"/>
<text text-anchor="middle" x="460.18" y="-780.35" font-family="Calibri" font-size="10.00">Plink merge Reich</text>
</g>
<!-- pileupCaller&#45;&gt;merge_reich -->
<g id="edge47" class="edge">
<title>pileupCaller&#45;&gt;merge_reich</title>
<path fill="none" stroke="black" stroke-dasharray="5,2" d="M590.96,-838.17C578.92,-830.13 564.22,-821.06 550.18,-814.35 539.94,-809.46 528.72,-804.99 517.77,-801.08"/>
<polygon fill="black" stroke="black" points="518.42,-798.71 511,-798.72 516.8,-803.34 518.42,-798.71"/>
</g>
<!-- define_READ_input -->
<g id="node58" class="node">
<title>define_READ_input</title>
<path fill="#fafafa" stroke="#00868b" stroke-width="2" d="M504.38,-413.13C504.38,-413.13 588.45,-394.66 588.45,-394.66 594.31,-393.37 606.04,-393.37 611.9,-394.66 611.9,-394.66 695.97,-413.13 695.97,-413.13 701.83,-414.41 707.67,-421.7 707.66,-427.7 707.66,-427.7 707.62,-441.91 707.62,-441.91 707.6,-447.91 701.59,-453.91 695.59,-453.91 695.59,-453.91 504.76,-453.91 504.76,-453.91 498.76,-453.91 492.75,-447.91 492.73,-441.91 492.73,-441.91 492.69,-427.7 492.69,-427.7 492.68,-421.7 498.52,-414.41 504.38,-413.13"/>
<text text-anchor="middle" x="600.18" y="-423.76" font-family="Calibri" font-size="10.00">define READ input tped</text>
</g>
<!-- pileupCaller&#45;&gt;define_READ_input -->
<g id="edge48" class="edge">
<title>pileupCaller&#45;&gt;define_READ_input</title>
<path fill="none" stroke="black" stroke-dasharray="5,2" d="M614.48,-838.2C610.67,-810.19 604.18,-755.54 604.18,-708.85 604.18,-708.85 604.18,-708.85 604.18,-631.85 604.18,-571.82 602.43,-501.9 601.25,-461.3"/>
<polygon fill="black" stroke="black" points="603.69,-460.99 601.03,-454.07 598.79,-461.14 603.69,-460.99"/>
</g>
<!-- haplo_to_plink -->
<g id="node38" class="node">
<title>haplo_to_plink</title>
<path fill="#fafafa" stroke="#ee1289" stroke-width="2" d="M800.68,-877.35C800.68,-877.35 713.68,-877.35 713.68,-877.35 707.68,-877.35 701.68,-871.35 701.68,-865.35 701.68,-865.35 701.68,-850.35 701.68,-850.35 701.68,-844.35 707.68,-838.35 713.68,-838.35 713.68,-838.35 800.68,-838.35 800.68,-838.35 806.68,-838.35 812.68,-844.35 812.68,-850.35 812.68,-850.35 812.68,-865.35 812.68,-865.35 812.68,-871.35 806.68,-877.35 800.68,-877.35"/>
<text text-anchor="middle" x="757.18" y="-855.35" font-family="Calibri" font-size="10.00">ANGSD haploToPlink</text>
</g>
<!-- angsd_haplo_call&#45;&gt;haplo_to_plink -->
<g id="edge51" class="edge">
<title>angsd_haplo_call&#45;&gt;haplo_to_plink</title>
<path fill="none" stroke="black" d="M756.35,-943.85C756.51,-927.46 756.74,-903.37 756.92,-885.02"/>
<polygon fill="black" stroke="black" points="759.38,-884.56 756.99,-877.54 754.48,-884.52 759.38,-884.56"/>
</g>
<!-- haplo_to_plink&#45;&gt;define_READ_input -->
<g id="edge49" class="edge">
<title>haplo_to_plink&#45;&gt;define_READ_input</title>
<path fill="none" stroke="black" stroke-dasharray="5,2" d="M744.59,-838.14C727.53,-810.92 699.18,-758.25 699.18,-708.85 699.18,-708.85 699.18,-708.85 699.18,-631.85 699.18,-565.74 656.77,-498.54 627.47,-459.99"/>
<polygon fill="black" stroke="black" points="629.1,-458.09 622.89,-454.05 625.23,-461.09 629.1,-458.09"/>
</g>
<!-- eigenstrat_to_plink&#45;&gt;merge_reich -->
<g id="edge53" class="edge">
<title>eigenstrat_to_plink&#45;&gt;merge_reich</title>
<path fill="none" stroke="black" d="M456.46,-838.05C457.05,-829.45 457.76,-819.12 458.4,-809.79"/>
<polygon fill="black" stroke="black" points="460.86,-809.74 458.89,-802.58 455.97,-809.4 460.86,-809.74"/>
</g>
<!-- plink_filter_autosomes -->
<g id="node41" class="node">
<title>plink_filter_autosomes</title>
<path fill="#fafafa" stroke="#7ccd7c" stroke-width="2" d="M506.18,-727.35C506.18,-727.35 414.18,-727.35 414.18,-727.35 408.18,-727.35 402.18,-721.35 402.18,-715.35 402.18,-715.35 402.18,-700.35 402.18,-700.35 402.18,-694.35 408.18,-688.35 414.18,-688.35 414.18,-688.35 506.18,-688.35 506.18,-688.35 512.18,-688.35 518.18,-694.35 518.18,-700.35 518.18,-700.35 518.18,-715.35 518.18,-715.35 518.18,-721.35 512.18,-727.35 506.18,-727.35"/>
<text text-anchor="middle" x="460.18" y="-705.35" font-family="Calibri" font-size="10.00">Plink filter autosomes</text>
</g>
<!-- merge_reich&#45;&gt;plink_filter_autosomes -->
<g id="edge54" class="edge">
<title>merge_reich&#45;&gt;plink_filter_autosomes</title>
<path fill="none" stroke="black" d="M460.18,-763.05C460.18,-754.45 460.18,-744.12 460.18,-734.79"/>
<polygon fill="black" stroke="black" points="462.63,-734.58 460.18,-727.58 457.73,-734.58 462.63,-734.58"/>
</g>
<!-- plink_filter_maf -->
<g id="node42" class="node">
<title>plink_filter_maf</title>
<path fill="#fafafa" stroke="#7ccd7c" stroke-width="2" d="M493.68,-652.35C493.68,-652.35 426.68,-652.35 426.68,-652.35 420.68,-652.35 414.68,-646.35 414.68,-640.35 414.68,-640.35 414.68,-625.35 414.68,-625.35 414.68,-619.35 420.68,-613.35 426.68,-613.35 426.68,-613.35 493.68,-613.35 493.68,-613.35 499.68,-613.35 505.68,-619.35 505.68,-625.35 505.68,-625.35 505.68,-640.35 505.68,-640.35 505.68,-646.35 499.68,-652.35 493.68,-652.35"/>
<text text-anchor="middle" x="460.18" y="-630.35" font-family="Calibri" font-size="10.00">Plink filter MAF</text>
</g>
<!-- plink_filter_autosomes&#45;&gt;plink_filter_maf -->
<g id="edge55" class="edge">
<title>plink_filter_autosomes&#45;&gt;plink_filter_maf</title>
<path fill="none" stroke="black" d="M460.18,-688.05C460.18,-679.45 460.18,-669.12 460.18,-659.79"/>
<polygon fill="black" stroke="black" points="462.63,-659.58 460.18,-652.58 457.73,-659.58 462.63,-659.58"/>
</g>
<!-- plink_extract_samples -->
<g id="node43" class="node">
<title>plink_extract_samples</title>
<path fill="#fafafa" stroke="#7ccd7c" stroke-width="2" d="M526.18,-577.35C526.18,-577.35 394.18,-577.35 394.18,-577.35 388.18,-577.35 382.18,-571.35 382.18,-565.35 382.18,-565.35 382.18,-550.35 382.18,-550.35 382.18,-544.35 388.18,-538.35 394.18,-538.35 394.18,-538.35 526.18,-538.35 526.18,-538.35 532.18,-538.35 538.18,-544.35 538.18,-550.35 538.18,-550.35 538.18,-565.35 538.18,-565.35 538.18,-571.35 532.18,-577.35 526.18,-577.35"/>
<text text-anchor="middle" x="460.18" y="-555.35" font-family="Calibri" font-size="10.00">Plink extract requested samples</text>
</g>
<!-- plink_filter_maf&#45;&gt;plink_extract_samples -->
<g id="edge56" class="edge">
<title>plink_filter_maf&#45;&gt;plink_extract_samples</title>
<path fill="none" stroke="black" d="M460.18,-613.05C460.18,-604.45 460.18,-594.12 460.18,-584.79"/>
<polygon fill="black" stroke="black" points="462.63,-584.58 460.18,-577.58 457.73,-584.58 462.63,-584.58"/>
</g>
<!-- plink_extract_samples&#45;&gt;define_READ_input -->
<g id="edge73" class="edge">
<title>plink_extract_samples&#45;&gt;define_READ_input</title>
<path fill="none" stroke="black" stroke-dasharray="5,2" d="M480.23,-538.28C502.56,-517.62 539.03,-483.85 565.91,-458.98"/>
<polygon fill="black" stroke="black" points="567.67,-460.68 571.15,-454.13 564.35,-457.09 567.67,-460.68"/>
</g>
<!-- run_KIN -->
<g id="node45" class="node">
<title>run_KIN</title>
<path fill="#fafafa" stroke="#ee9a00" stroke-width="2" d="M793.68,-252C793.68,-252 756.68,-252 756.68,-252 750.68,-252 744.68,-246 744.68,-240 744.68,-240 744.68,-225 744.68,-225 744.68,-219 750.68,-213 756.68,-213 756.68,-213 793.68,-213 793.68,-213 799.68,-213 805.68,-219 805.68,-225 805.68,-225 805.68,-240 805.68,-240 805.68,-246 799.68,-252 793.68,-252"/>
<text text-anchor="middle" x="775.18" y="-230" font-family="Calibri" font-size="10.00">Run KIN</text>
</g>
<!-- run_Kingaroo&#45;&gt;run_KIN -->
<g id="edge58" class="edge">
<title>run_Kingaroo&#45;&gt;run_KIN</title>
<path fill="none" stroke="black" d="M775.18,-406.53C775.18,-372.07 775.18,-298.59 775.18,-259.39"/>
<polygon fill="black" stroke="black" points="777.63,-259.03 775.18,-252.03 772.73,-259.03 777.63,-259.03"/>
</g>
<!-- KIN -->
<g id="node46" class="node">
<title>KIN</title>
<path fill="#fafafa" stroke="#ee9a00" stroke-width="2" d="M766.29,-93.94C766.29,-93.94 741.06,-71.06 741.06,-71.06 736.62,-67.03 736.62,-58.97 741.06,-54.94 741.06,-54.94 766.29,-32.06 766.29,-32.06 770.73,-28.03 779.62,-28.03 784.06,-32.06 784.06,-32.06 809.29,-54.94 809.29,-54.94 813.73,-58.97 813.73,-67.03 809.29,-71.06 809.29,-71.06 784.06,-93.94 784.06,-93.94 779.62,-97.97 770.73,-97.97 766.29,-93.94"/>
<text text-anchor="middle" x="775.18" y="-60.5" font-family="Calibri" font-size="10.00">KIN</text>
</g>
<!-- run_KIN&#45;&gt;KIN -->
<g id="edge59" class="edge">
<title>run_KIN&#45;&gt;KIN</title>
<path fill="none" stroke="black" d="M775.18,-212.93C775.18,-188.12 775.18,-143.34 775.18,-109.34"/>
<polygon fill="black" stroke="black" points="777.63,-109.26 775.18,-102.26 772.73,-109.26 777.63,-109.26"/>
</g>
<!-- run_TKGWV2 -->
<g id="node50" class="node">
<title>run_TKGWV2</title>
<path fill="#fafafa" stroke="#cd69c9" stroke-width="2" d="M1102.18,-252C1102.18,-252 1044.18,-252 1044.18,-252 1038.18,-252 1032.18,-246 1032.18,-240 1032.18,-240 1032.18,-225 1032.18,-225 1032.18,-219 1038.18,-213 1044.18,-213 1044.18,-213 1102.18,-213 1102.18,-213 1108.18,-213 1114.18,-219 1114.18,-225 1114.18,-225 1114.18,-240 1114.18,-240 1114.18,-246 1108.18,-252 1102.18,-252"/>
<text text-anchor="middle" x="1073.18" y="-230" font-family="Calibri" font-size="10.00">Run TKGWV2</text>
</g>
<!-- define_TKGWV2_input&#45;&gt;run_TKGWV2 -->
<g id="edge63" class="edge">
<title>define_TKGWV2_input&#45;&gt;run_TKGWV2</title>
<path fill="none" stroke="black" d="M996.78,-294.33C1011.95,-282.25 1029.69,-268.12 1044.26,-256.52"/>
<polygon fill="black" stroke="black" points="1045.93,-258.33 1049.88,-252.05 1042.88,-254.49 1045.93,-258.33"/>
</g>
<!-- download_TKGWV2_data -->
<g id="node48" class="node">
<title>download_TKGWV2_data</title>
<path fill="#fafafa" stroke="red" stroke-width="2" d="M1252.18,-341.59C1252.18,-341.59 1114.18,-341.59 1114.18,-341.59 1108.18,-341.59 1102.18,-335.59 1102.18,-329.59 1102.18,-329.59 1102.18,-314.59 1102.18,-314.59 1102.18,-308.59 1108.18,-302.59 1114.18,-302.59 1114.18,-302.59 1252.18,-302.59 1252.18,-302.59 1258.18,-302.59 1264.18,-308.59 1264.18,-314.59 1264.18,-314.59 1264.18,-329.59 1264.18,-329.59 1264.18,-335.59 1258.18,-341.59 1252.18,-341.59"/>
<text text-anchor="middle" x="1183.18" y="-319.59" font-family="Calibri" font-size="10.00">Download TKGWV2 Support Files</text>
</g>
<!-- download_TKGWV2_data&#45;&gt;run_TKGWV2 -->
<g id="edge64" class="edge">
<title>download_TKGWV2_data&#45;&gt;run_TKGWV2</title>
<path fill="none" stroke="black" d="M1159.85,-302.51C1143.08,-289.16 1120.34,-271.06 1102.37,-256.74"/>
<polygon fill="black" stroke="black" points="1103.47,-254.49 1096.47,-252.05 1100.42,-258.33 1103.47,-254.49"/>
</g>
<!-- downsample_BAM&#45;&gt;define_TKGWV2_input -->
<g id="edge62" class="edge">
<title>downsample_BAM&#45;&gt;define_TKGWV2_input</title>
<path fill="none" stroke="black" stroke-dasharray="5,2" d="M906.83,-406.52C916.39,-392.36 929.76,-372.56 941.08,-355.81"/>
<polygon fill="black" stroke="black" points="943.25,-356.96 945.14,-349.79 939.19,-354.22 943.25,-356.96"/>
</g>
<!-- TKGWV2 -->
<g id="node51" class="node">
<title>TKGWV2</title>
<path fill="#fafafa" stroke="#cd69c9" stroke-width="2" d="M1062.93,-95.76C1062.93,-95.76 1019.42,-69.24 1019.42,-69.24 1014.3,-66.12 1014.3,-59.88 1019.42,-56.76 1019.42,-56.76 1062.93,-30.24 1062.93,-30.24 1068.05,-27.12 1078.3,-27.12 1083.42,-30.24 1083.42,-30.24 1126.93,-56.76 1126.93,-56.76 1132.05,-59.88 1132.05,-66.12 1126.93,-69.24 1126.93,-69.24 1083.42,-95.76 1083.42,-95.76 1078.3,-98.88 1068.05,-98.88 1062.93,-95.76"/>
<text text-anchor="middle" x="1073.18" y="-60.5" font-family="Calibri" font-size="10.00">TKGWV2</text>
</g>
<!-- run_TKGWV2&#45;&gt;TKGWV2 -->
<g id="edge65" class="edge">
<title>run_TKGWV2&#45;&gt;TKGWV2</title>
<path fill="none" stroke="black" d="M1073.18,-212.93C1073.18,-188.12 1073.18,-143.34 1073.18,-109.34"/>
<polygon fill="black" stroke="black" points="1075.63,-109.26 1073.18,-102.26 1070.73,-109.26 1075.63,-109.26"/>
</g>
<!-- download_1000_genomes -->
<g id="node52" class="node">
<title>download_1000_genomes</title>
<path fill="#fafafa" stroke="red" stroke-width="2" d="M312.68,-445.76C312.68,-445.76 207.68,-445.76 207.68,-445.76 201.68,-445.76 195.68,-439.76 195.68,-433.76 195.68,-433.76 195.68,-418.76 195.68,-418.76 195.68,-412.76 201.68,-406.76 207.68,-406.76 207.68,-406.76 312.68,-406.76 312.68,-406.76 318.68,-406.76 324.68,-412.76 324.68,-418.76 324.68,-418.76 324.68,-433.76 324.68,-433.76 324.68,-439.76 318.68,-445.76 312.68,-445.76"/>
<text text-anchor="middle" x="260.18" y="-423.76" font-family="Calibri" font-size="10.00">Download 1000g phase3</text>
</g>
<!-- GRUPS_generate_fst_set -->
<g id="node55" class="node">
<title>GRUPS_generate_fst_set</title>
<path fill="#fafafa" stroke="greenyellow" stroke-width="2" d="M150.18,-341.59C150.18,-341.59 78.18,-341.59 78.18,-341.59 72.18,-341.59 66.18,-335.59 66.18,-329.59 66.18,-329.59 66.18,-314.59 66.18,-314.59 66.18,-308.59 72.18,-302.59 78.18,-302.59 78.18,-302.59 150.18,-302.59 150.18,-302.59 156.18,-302.59 162.18,-308.59 162.18,-314.59 162.18,-314.59 162.18,-329.59 162.18,-329.59 162.18,-335.59 156.18,-341.59 150.18,-341.59"/>
<text text-anchor="middle" x="114.18" y="-319.59" font-family="Calibri" font-size="10.00">Generate FST set</text>
</g>
<!-- download_1000_genomes&#45;&gt;GRUPS_generate_fst_set -->
<g id="edge66" class="edge">
<title>download_1000_genomes&#45;&gt;GRUPS_generate_fst_set</title>
<path fill="none" stroke="black" d="M233.74,-406.76C209.29,-389.65 172.89,-364.17 146.67,-345.83"/>
<polygon fill="black" stroke="black" points="148.05,-343.8 140.91,-341.8 145.24,-347.82 148.05,-343.8"/>
</g>
<!-- download_hapmap -->
<g id="node53" class="node">
<title>download_hapmap</title>
<path fill="#fafafa" stroke="red" stroke-width="2" d="M360.18,-341.59C360.18,-341.59 192.18,-341.59 192.18,-341.59 186.18,-341.59 180.18,-335.59 180.18,-329.59 180.18,-329.59 180.18,-314.59 180.18,-314.59 180.18,-308.59 186.18,-302.59 192.18,-302.59 192.18,-302.59 360.18,-302.59 360.18,-302.59 366.18,-302.59 372.18,-308.59 372.18,-314.59 372.18,-314.59 372.18,-329.59 372.18,-329.59 372.18,-335.59 366.18,-341.59 360.18,-341.59"/>
<text text-anchor="middle" x="276.18" y="-319.59" font-family="Calibri" font-size="10.00">Download HapMapII recombination map</text>
</g>
<!-- download_hapmap&#45;&gt;run_GRUPS -->
<g id="edge70" class="edge">
<title>download_hapmap&#45;&gt;run_GRUPS</title>
<path fill="none" stroke="black" d="M241.82,-302.51C216.37,-288.75 181.6,-269.95 154.77,-255.45"/>
<polygon fill="black" stroke="black" points="155.8,-253.22 148.48,-252.05 153.47,-257.53 155.8,-253.22"/>
</g>
<!-- fetch_sample_panel -->
<g id="node54" class="node">
<title>fetch_sample_panel</title>
<path fill="#fafafa" stroke="red" stroke-width="2" d="M165.68,-445.76C165.68,-445.76 78.68,-445.76 78.68,-445.76 72.68,-445.76 66.68,-439.76 66.68,-433.76 66.68,-433.76 66.68,-418.76 66.68,-418.76 66.68,-412.76 72.68,-406.76 78.68,-406.76 78.68,-406.76 165.68,-406.76 165.68,-406.76 171.68,-406.76 177.68,-412.76 177.68,-418.76 177.68,-418.76 177.68,-433.76 177.68,-433.76 177.68,-439.76 171.68,-445.76 165.68,-445.76"/>
<text text-anchor="middle" x="122.18" y="-423.76" font-family="Calibri" font-size="10.00">Fetch samples panel</text>
</g>
<!-- fetch_sample_panel&#45;&gt;GRUPS_generate_fst_set -->
<g id="edge67" class="edge">
<title>fetch_sample_panel&#45;&gt;GRUPS_generate_fst_set</title>
<path fill="none" stroke="black" d="M120.71,-406.52C119.44,-390.39 117.61,-366.95 116.21,-349.02"/>
<polygon fill="black" stroke="black" points="118.62,-348.5 115.63,-341.71 113.74,-348.88 118.62,-348.5"/>
</g>
<!-- GRUPS_generate_fst_set&#45;&gt;run_GRUPS -->
<g id="edge69" class="edge">
<title>GRUPS_generate_fst_set&#45;&gt;run_GRUPS</title>
<path fill="none" stroke="black" d="M114.18,-302.51C114.18,-289.97 114.18,-273.24 114.18,-259.4"/>
<polygon fill="black" stroke="black" points="116.63,-259.05 114.18,-252.05 111.73,-259.05 116.63,-259.05"/>
</g>
<!-- GRUPS -->
<g id="node57" class="node">
<title>GRUPS</title>
<path fill="#fafafa" stroke="greenyellow" stroke-width="2" d="M112.33,-95.14C112.33,-95.14 76.02,-69.86 76.02,-69.86 71.1,-66.43 71.1,-59.57 76.02,-56.14 76.02,-56.14 112.33,-30.86 112.33,-30.86 117.25,-27.43 127.1,-27.43 132.02,-30.86 132.02,-30.86 168.33,-56.14 168.33,-56.14 173.25,-59.57 173.25,-66.43 168.33,-69.86 168.33,-69.86 132.02,-95.14 132.02,-95.14 127.1,-98.57 117.25,-98.57 112.33,-95.14"/>
<text text-anchor="middle" x="122.18" y="-60.5" font-family="Calibri" font-size="10.00">GRUPS</text>
</g>
<!-- run_GRUPS&#45;&gt;GRUPS -->
<g id="edge72" class="edge">
<title>run_GRUPS&#45;&gt;GRUPS</title>
<path fill="none" stroke="black" d="M115.06,-212.93C116.26,-187.81 118.44,-142.19 120.07,-108.04"/>
<polygon fill="black" stroke="black" points="122.52,-108.04 120.41,-100.93 117.63,-107.81 122.52,-108.04"/>
</g>
<!-- READ_filter_low_cov -->
<g id="node59" class="node">
<title>READ_filter_low_cov</title>
<path fill="#fafafa" stroke="#00868b" stroke-width="2" d="M646.18,-341.59C646.18,-341.59 564.18,-341.59 564.18,-341.59 558.18,-341.59 552.18,-335.59 552.18,-329.59 552.18,-329.59 552.18,-314.59 552.18,-314.59 552.18,-308.59 558.18,-302.59 564.18,-302.59 564.18,-302.59 646.18,-302.59 646.18,-302.59 652.18,-302.59 658.18,-308.59 658.18,-314.59 658.18,-314.59 658.18,-329.59 658.18,-329.59 658.18,-335.59 652.18,-341.59 646.18,-341.59"/>
<text text-anchor="middle" x="605.18" y="-319.59" font-family="Calibri" font-size="10.00">Filter low&#45;coverage</text>
</g>
<!-- define_READ_input&#45;&gt;READ_filter_low_cov -->
<g id="edge74" class="edge">
<title>define_READ_input&#45;&gt;READ_filter_low_cov</title>
<path fill="none" stroke="black" d="M601.78,-392.37C602.48,-378.19 603.28,-361.87 603.93,-348.63"/>
<polygon fill="black" stroke="black" points="606.37,-348.73 604.27,-341.62 601.48,-348.49 606.37,-348.73"/>
</g>
<!-- run_READ -->
<g id="node60" class="node">
<title>run_READ</title>
<path fill="#fafafa" stroke="#00868b" stroke-width="2" d="M637.18,-252C637.18,-252 593.18,-252 593.18,-252 587.18,-252 581.18,-246 581.18,-240 581.18,-240 581.18,-225 581.18,-225 581.18,-219 587.18,-213 593.18,-213 593.18,-213 637.18,-213 637.18,-213 643.18,-213 649.18,-219 649.18,-225 649.18,-225 649.18,-240 649.18,-240 649.18,-246 643.18,-252 637.18,-252"/>
<text text-anchor="middle" x="615.18" y="-230" font-family="Calibri" font-size="10.00">Run READ</text>
</g>
<!-- READ_filter_low_cov&#45;&gt;run_READ -->
<g id="edge75" class="edge">
<title>READ_filter_low_cov&#45;&gt;run_READ</title>
<path fill="none" stroke="black" d="M607.3,-302.51C608.74,-289.85 610.67,-272.93 612.26,-259.01"/>
<polygon fill="black" stroke="black" points="614.7,-259.28 613.06,-252.05 609.83,-258.73 614.7,-259.28"/>
</g>
<!-- READ_get_relatedness_coefficient -->
<g id="node61" class="node">
<title>READ_get_relatedness_coefficient</title>
<path fill="#fafafa" stroke="#00868b" stroke-width="2" d="M524.18,-177C524.18,-177 408.18,-177 408.18,-177 402.18,-177 396.18,-171 396.18,-165 396.18,-165 396.18,-150 396.18,-150 396.18,-144 402.18,-138 408.18,-138 408.18,-138 524.18,-138 524.18,-138 530.18,-138 536.18,-144 536.18,-150 536.18,-150 536.18,-165 536.18,-165 536.18,-171 530.18,-177 524.18,-177"/>
<text text-anchor="middle" x="466.18" y="-155" font-family="Calibri" font-size="10.00">Get Relatedness Coefficient</text>
</g>
<!-- run_READ&#45;&gt;READ_get_relatedness_coefficient -->
<g id="edge76" class="edge">
<title>run_READ&#45;&gt;READ_get_relatedness_coefficient</title>
<path fill="none" stroke="black" d="M580.99,-214.75C560.11,-204.52 533.19,-191.33 510.66,-180.29"/>
<polygon fill="black" stroke="black" points="511.49,-177.97 504.13,-177.09 509.34,-182.37 511.49,-177.97"/>
</g>
<!-- READ_get_overlap -->
<g id="node62" class="node">
<title>READ_get_overlap</title>
<path fill="#fafafa" stroke="#00868b" stroke-width="2" d="M675.68,-177C675.68,-177 566.68,-177 566.68,-177 560.68,-177 554.68,-171 554.68,-165 554.68,-165 554.68,-150 554.68,-150 554.68,-144 560.68,-138 566.68,-138 566.68,-138 675.68,-138 675.68,-138 681.68,-138 687.68,-144 687.68,-150 687.68,-150 687.68,-165 687.68,-165 687.68,-171 681.68,-177 675.68,-177"/>
<text text-anchor="middle" x="621.18" y="-155" font-family="Calibri" font-size="10.00">Get Pairwise SNP Overlap</text>
</g>
<!-- run_READ&#45;&gt;READ_get_overlap -->
<g id="edge77" class="edge">
<title>run_READ&#45;&gt;READ_get_overlap</title>
<path fill="none" stroke="black" d="M616.72,-212.7C617.43,-204.1 618.28,-193.77 619.04,-184.45"/>
<polygon fill="black" stroke="black" points="621.5,-184.41 619.64,-177.24 616.62,-184.01 621.5,-184.41"/>
</g>
<!-- READ -->
<g id="node63" class="node">
<title>READ</title>
<path fill="#fafafa" stroke="#00868b" stroke-width="2" d="M611.71,-94.62C611.71,-94.62 580.64,-70.38 580.64,-70.38 575.91,-66.69 575.91,-59.31 580.64,-55.62 580.64,-55.62 611.71,-31.38 611.71,-31.38 616.44,-27.69 625.91,-27.69 630.64,-31.38 630.64,-31.38 661.71,-55.62 661.71,-55.62 666.44,-59.31 666.44,-66.69 661.71,-70.38 661.71,-70.38 630.64,-94.62 630.64,-94.62 625.91,-98.31 616.44,-98.31 611.71,-94.62"/>
<text text-anchor="middle" x="621.18" y="-60.5" font-family="Calibri" font-size="10.00">READ</text>
</g>
<!-- run_READ&#45;&gt;READ -->
<g id="edge78" class="edge">
<title>run_READ&#45;&gt;READ</title>
<path fill="none" stroke="black" d="M649.26,-218.3C666.98,-209.48 687,-195.98 697.18,-177 714.9,-143.93 681.44,-108.43 653.44,-86.23"/>
<polygon fill="black" stroke="black" points="654.61,-84.03 647.57,-81.7 651.62,-87.91 654.61,-84.03"/>
</g>
<!-- READ_get_relatedness_coefficient&#45;&gt;READ -->
<g id="edge79" class="edge">
<title>READ_get_relatedness_coefficient&#45;&gt;READ</title>
<path fill="none" stroke="black" d="M497.54,-137.78C523.58,-122.24 560.55,-100.18 587.27,-84.23"/>
<polygon fill="black" stroke="black" points="588.74,-86.21 593.49,-80.52 586.23,-82 588.74,-86.21"/>
</g>
<!-- READ_get_overlap&#45;&gt;READ -->
<g id="edge80" class="edge">
<title>READ_get_overlap&#45;&gt;READ</title>
<path fill="none" stroke="black" d="M621.18,-137.78C621.18,-129.54 621.18,-119.47 621.18,-109.44"/>
<polygon fill="black" stroke="black" points="623.63,-109.18 621.18,-102.18 618.73,-109.18 623.63,-109.18"/>
</g>
</g>
</svg>
